<svg
    xmlns="http://www.w3.org/2000/svg"
    viewBox="0 0 192 192"
    id="vector">
    <path
        id="path_1"
        d="M 6 96 C 6 119.86 15.489 142.768 32.36 159.64 C 49.232 176.511 72.14 186 96 186 C 119.86 186 142.768 176.511 159.64 159.64 C 176.511 142.768 186 119.86 186 96 C 186 72.14 176.511 49.232 159.64 32.36 C 142.768 15.489 119.86 6 96 6 C 72.14 6 49.232 15.489 32.36 32.36 C 15.489 49.232 6 72.14 6 96"
        fill="#ffff00"/>
    <path
        id="path"
        d="M 96 80.5 C 95.06 74.31 96.54 72.03 97.08 66.5 L 97.08 47.5 C 97.28 41.94 99.24 40.67 99.31 35.5 C 99.4 29.28 102.95 19.5 110.98 21.16 C 116.43 22.29 118.9 29.53 116.56 34.24 C 115.37 36.64 112.89 37.51 113.11 40.55 C 113.54 46.3 119.34 46.23 118 54.5 C 122.36 54.4 129.92 53.65 133.56 51.22 C 139.79 47.09 142.2 35.95 149 27.5 C 146.83 36.73 142.55 41.25 140.51 47.5 C 139.54 50.49 139.8 54.74 136.53 56.49 C 134.21 57.69 132.19 56.23 129 56.49 C 125.94 56.79 117.69 59.07 115 60.73 L 124 60.73 L 132 62.07 L 138.3 60.9 L 147.52 43.68 L 161 33.5 C 164.06 40.15 169.26 43.11 176 45.5 C 178.47 46.37 185.79 48.79 187.44 50.34 C 190.39 53.12 190.1 59.73 181.99 59.43 C 177.69 59.26 177.08 59.67 173 60.5 L 162.15 62.5 C 164.52 71.38 161.9 86.24 162.15 89.5 C 162.92 94.73 164.05 91.72 164 102.5 C 163.95 113.98 159.91 113.3 160.37 118.5 C 160.77 123.14 166.73 135.15 169.14 139.5 L 176.95 155.5 L 188 169.5 C 185.68 169.49 182.54 169.71 180.46 168.62 C 176.85 166.72 168.76 150.73 167 146.5 C 159.62 149.02 160.09 151.8 154.91 156.11 C 149.61 160.52 143.59 161.62 137 160.5 C 141.54 153.89 141.41 157.05 145.84 154.66 C 148.08 153.45 159.06 144.44 159.75 142.41 C 160.67 139.73 158.59 137.45 157.06 135.5 C 154.26 131.94 149.17 125.73 145 124.06 C 141.4 122.62 135.05 123.48 131 123.5 C 123.43 123.53 115.42 124.01 108 122.5 C 104.96 121.88 97.68 118.86 95.42 120.31 C 93.33 121.64 92.09 126.19 91.43 128.5 C 90.65 131.2 88.9 136.88 89.69 139.49 C 90.84 143.29 100.62 150.41 104 153.25 C 110.87 159.03 111.72 162.32 121 164.5 C 118.36 168.57 112.62 169.16 108.59 166.58 L 101.98 160.87 C 97.6 157.47 81.97 146.46 79.94 142.46 C 78.79 139.79 79.86 137.27 79.94 134.5 L 78 124.5 L 68.96 132.75 C 62.99 137.5 56.25 141.27 51.61 147.5 C 44.65 156.83 45.71 169.59 32 172.5 C 32.26 170.97 32.16 170.34 33 168.87 L 36.1 165.13 L 43.19 152.5 L 48.93 136.59 C 52.51 130.77 57.7 131.7 58.68 119.5 L 58.09 103.5 L 61 89.5 C 57.07 89.5 52.64 89.16 49 90.78 C 43.7 93.12 41.03 97.3 36.91 100.88 C 30.75 106.23 21.24 110.9 13 111.41 C 4.77 111.91 -0.47 107.83 8.09 101.6 C 12.4 98.47 21.76 95.33 27 92.69 L 41 84.4 C 45.77 82.26 51.85 81.09 57 82.17 L 68 85.25 L 78 82.96 L 96 80.5 Z M 138 64.5 C 126.35 61.19 123.01 65.43 123 76.5 C 132.43 76.46 131.95 75.96 138 64.5 Z M 120 65.5 L 116 66.5 L 118 71.5 L 120 65.5 Z M 130 78.5 L 122 79.5 C 124.76 84.12 128.3 83.39 130 78.5 Z"
        fill="#000000"
        stroke="#000000"/>
</svg>
