<svg
    xmlns="http://www.w3.org/2000/svg"
    viewBox="0 0 192 159"
    id="vector">
    <path
        id="path"
        d="M 96 64 C 95.06 57.81 96.54 55.53 97.08 50 L 97.08 31 C 97.28 25.44 99.24 24.17 99.31 19 C 99.4 12.78 102.95 3 110.98 4.66 C 116.43 5.79 118.9 13.03 116.56 17.74 C 115.37 20.14 112.89 21.01 113.11 24.05 C 113.54 29.8 119.34 29.73 118 38 C 122.36 37.9 129.92 37.15 133.56 34.72 C 139.79 30.59 142.2 19.45 149 11 C 146.83 20.23 142.55 24.75 140.51 31 C 139.54 33.99 139.8 38.24 136.53 39.99 C 134.21 41.19 132.19 39.73 129 39.99 C 125.94 40.29 117.69 42.57 115 44.23 L 124 44.23 L 132 45.57 L 138.3 44.4 L 147.52 27.18 L 161 17 C 164.06 23.65 169.26 26.61 176 29 C 178.47 29.87 185.79 32.29 187.44 33.84 C 190.39 36.62 190.1 43.23 181.99 42.93 C 177.69 42.76 177.08 43.17 173 44 L 162.15 46 C 164.52 54.88 161.9 69.74 162.15 73 C 162.92 78.23 164.05 75.22 164 86 C 163.95 97.48 159.91 96.8 160.37 102 C 160.77 106.64 166.73 118.65 169.14 123 L 176.95 139 L 188 153 C 185.68 152.99 182.54 153.21 180.46 152.12 C 176.85 150.22 168.76 134.23 167 130 C 159.62 132.52 160.09 135.3 154.91 139.61 C 149.61 144.02 143.59 145.12 137 144 C 141.54 137.39 141.41 140.55 145.84 138.16 C 148.08 136.95 159.06 127.94 159.75 125.91 C 160.67 123.23 158.59 120.95 157.06 119 C 154.26 115.44 149.17 109.23 145 107.56 C 141.4 106.12 135.05 106.98 131 107 C 123.43 107.03 115.42 107.51 108 106 C 104.96 105.38 97.68 102.36 95.42 103.81 C 93.33 105.14 92.09 109.69 91.43 112 C 90.65 114.7 88.9 120.38 89.69 122.99 C 90.84 126.79 100.62 133.91 104 136.75 C 110.87 142.53 111.72 145.82 121 148 C 118.36 152.07 112.62 152.66 108.59 150.08 L 101.98 144.37 C 97.6 140.97 81.97 129.96 79.94 125.96 C 78.79 123.29 79.86 120.77 79.94 118 L 78 108 L 68.96 116.25 C 62.99 121 56.25 124.77 51.61 131 C 44.65 140.33 45.71 153.09 32 156 C 32.26 154.47 32.16 153.84 33 152.37 L 36.1 148.63 L 43.19 136 L 48.93 120.09 C 52.51 114.27 57.7 115.2 58.68 103 L 58.09 87 L 61 73 C 57.07 73 52.64 72.66 49 74.28 C 43.7 76.62 41.03 80.8 36.91 84.38 C 30.75 89.73 21.24 94.4 13 94.91 C 4.77 95.41 -0.47 91.33 8.09 85.1 C 12.4 81.97 21.76 78.83 27 76.19 L 41 67.9 C 45.77 65.76 51.85 64.59 57 65.67 L 68 68.75 L 78 66.46 L 96 64 Z M 138 48 C 126.35 44.69 123.01 48.93 123 60 C 132.43 59.96 131.95 59.46 138 48 Z M 120 49 L 116 50 L 118 55 L 120 49 Z M 130 62 L 122 63 C 124.76 67.62 128.3 66.89 130 62 Z"
        fill="#4e54c8"
        stroke-width="1"/>
</svg>
