<svg xmlns="http://www.w3.org/2000/svg" viewBox="0 0 4880 80" width="4880" height="80"><g fill="none" stroke-width="2" stroke-linecap="round" stroke-linejoin="round"><path d="M40 40L2 2v18L20 2H2m38 38L78 2v18L60 2h18M40 40L2 78V60l18 18H2m38-38l38 38V60L60 78h18" stroke="#ffffff"/><g stroke="#bdbdbd"><path d="M40 40L2 2v18L20 2H2M40 40L78 2v18L60 2h18M40 40L2 78V60l18 18H2M40 40l38 38V60L60 78h18"/></g><g stroke="#bdbdbd" stroke-dasharray="0,115.19595949289334" stroke-dashoffset="115.195959"><path d="M40 40L2 2v18L20 2H2M40 40L78 2v18L60 2h18M40 40L2 78V60l18 18H2M40 40l38 38V60L60 78h18"/></g></g><g fill="none" stroke-width="2" stroke-linecap="round" stroke-linejoin="round"><path d="M120 40L82 2v18l18-18H82m38 38l38-38v18L140 2h18m-38 38L82 78V60l18 18H82m38-38l38 38V60l-18 18h18" stroke="#ffffff"/><g stroke="#bdbdbd" stroke-dasharray="115.00019515466425,0.19576433822907993" stroke-dashoffset="115.000195"><path d="M120 40L82 2v18l18-18H82M120 40l38-38v18L140 2h18M120 40L82 78V60l18 18H82M120 40l38 38V60l-18 18h18"/></g><g stroke="#bdbdbd" stroke-dasharray="0,115.19595949289334" stroke-dashoffset="115.195959"><path d="M120 40L82 2v18l18-18H82M120 40l38-38v18L140 2h18M120 40L82 78V60l18 18H82M120 40l38 38V60l-18 18h18"/></g></g><g fill="none" stroke-width="2" stroke-linecap="round" stroke-linejoin="round"><path d="M200 40L162 2v18l18-18h-18m38 38l38-38v18L220 2h18m-38 38l-38 38V60l18 18h-18m38-38l38 38V60l-18 18h18" stroke="#ffffff"/><g stroke="#bdbdbd" stroke-dasharray="114.36537691104758,0.830582581845765" stroke-dashoffset="114.365377"><path d="M200 40L162 2v18l18-18h-18M200 40l38-38v18L220 2h18M200 40l-38 38V60l18 18h-18M200 40l38 38V60l-18 18h18"/></g><g stroke="#bdbdbd" stroke-dasharray="0,115.19595949289334" stroke-dashoffset="115.195959"><path d="M200 40L162 2v18l18-18h-18M200 40l38-38v18L220 2h18M200 40l-38 38V60l18 18h-18M200 40l38 38V60l-18 18h18"/></g></g><g fill="none" stroke-width="2" stroke-linecap="round" stroke-linejoin="round"><path d="M280 40L242 2v18l18-18h-18m38 38l38-38v18L300 2h18m-38 38l-38 38V60l18 18h-18m38-38l38 38V60l-18 18h18" stroke="#ffffff"/><g stroke="#bdbdbd" stroke-dasharray="113.20665121280786,1.9893082800854747" stroke-dashoffset="113.206651"><path d="M280 40L242 2v18l18-18h-18M280 40l38-38v18L300 2h18M280 40l-38 38V60l18 18h-18M280 40l38 38V60l-18 18h18"/></g><g stroke="#bdbdbd" stroke-dasharray="0,115.19595949289334" stroke-dashoffset="115.195959"><path d="M280 40L242 2v18l18-18h-18M280 40l38-38v18L300 2h18M280 40l-38 38V60l18 18h-18M280 40l38 38V60l-18 18h18"/></g></g><g fill="none" stroke-width="2" stroke-linecap="round" stroke-linejoin="round"><path d="M360 40L322 2v18l18-18h-18m38 38l38-38v18L380 2h18m-38 38l-38 38V60l18 18h-18m38-38l38 38V60l-18 18h18" stroke="#ffffff"/><g stroke="#bdbdbd" stroke-dasharray="111.41744864653216,3.7785108463611725" stroke-dashoffset="111.417449"><path d="M360 40L322 2v18l18-18h-18M360 40l38-38v18L380 2h18M360 40l-38 38V60l18 18h-18M360 40l38 38V60l-18 18h18"/></g><g stroke="#bdbdbd" stroke-dasharray="0,115.19595949289334" stroke-dashoffset="115.195959"><path d="M360 40L322 2v18l18-18h-18M360 40l38-38v18L380 2h18M360 40l-38 38V60l18 18h-18M360 40l38 38V60l-18 18h18"/></g></g><g fill="none" stroke-width="2" stroke-linecap="round" stroke-linejoin="round"><path d="M440 40L402 2v18l18-18h-18m38 38l38-38v18L460 2h18m-38 38l-38 38V60l18 18h-18m38-38l38 38V60l-18 18h18" stroke="#ffffff"/><g stroke="#bdbdbd" stroke-dasharray="108.86543751421415,6.330521978679188" stroke-dashoffset="108.865438"><path d="M440 40L402 2v18l18-18h-18M440 40l38-38v18L460 2h18M440 40l-38 38V60l18 18h-18M440 40l38 38V60l-18 18h18"/></g><g stroke="#bdbdbd" stroke-dasharray="0,115.19595949289334" stroke-dashoffset="115.195959"><path d="M440 40L402 2v18l18-18h-18M440 40l38-38v18L460 2h18M440 40l-38 38V60l18 18h-18M440 40l38 38V60l-18 18h18"/></g></g><g fill="none" stroke-width="2" stroke-linecap="round" stroke-linejoin="round"><path d="M520 40L482 2v18l18-18h-18m38 38l38-38v18L540 2h18m-38 38l-38 38V60l18 18h-18m38-38l38 38V60l-18 18h18" stroke="#ffffff"/><g stroke="#bdbdbd" stroke-dasharray="105.39215188123704,9.803807611656294" stroke-dashoffset="105.392152"><path d="M520 40L482 2v18l18-18h-18M520 40l38-38v18L540 2h18M520 40l-38 38V60l18 18h-18M520 40l38 38V60l-18 18h18"/></g><g stroke="#bdbdbd" stroke-dasharray="0,115.19595949289334" stroke-dashoffset="115.195959"><path d="M520 40L482 2v18l18-18h-18M520 40l38-38v18L540 2h18M520 40l-38 38V60l18 18h-18M520 40l38 38V60l-18 18h18"/></g></g><g fill="none" stroke-width="2" stroke-linecap="round" stroke-linejoin="round"><path d="M600 40L562 2v18l18-18h-18m38 38l38-38v18L620 2h18m-38 38l-38 38V60l18 18h-18m38-38l38 38V60l-18 18h18" stroke="#ffffff"/><g stroke="#bdbdbd" stroke-dasharray="100.82475921076939,14.371200282123949" stroke-dashoffset="100.824759"><path d="M600 40L562 2v18l18-18h-18M600 40l38-38v18L620 2h18M600 40l-38 38V60l18 18h-18M600 40l38 38V60l-18 18h18"/></g><g stroke="#bdbdbd" stroke-dasharray="0,115.19595949289334" stroke-dashoffset="115.195959"><path d="M600 40L562 2v18l18-18h-18M600 40l38-38v18L620 2h18M600 40l-38 38V60l18 18h-18M600 40l38 38V60l-18 18h18"/></g></g><g fill="none" stroke-width="2" stroke-linecap="round" stroke-linejoin="round"><path d="M680 40L642 2v18l18-18h-18m38 38l38-38v18L700 2h18m-38 38l-38 38V60l18 18h-18m38-38l38 38V60l-18 18h18" stroke="#ffffff"/><g stroke="#bdbdbd" stroke-dasharray="95.01727938507969,20.178680107813644" stroke-dashoffset="95.017279"><path d="M680 40L642 2v18l18-18h-18M680 40l38-38v18L700 2h18M680 40l-38 38V60l18 18h-18M680 40l38 38V60l-18 18h18"/></g><g stroke="#bdbdbd" stroke-dasharray="0,115.19595949289334" stroke-dashoffset="115.195959"><path d="M680 40L642 2v18l18-18h-18M680 40l38-38v18L700 2h18M680 40l-38 38V60l18 18h-18M680 40l38 38V60l-18 18h18"/></g></g><g fill="none" stroke-width="2" stroke-linecap="round" stroke-linejoin="round"><path d="M760 40L722 2v18l18-18h-18m38 38l38-38v18L780 2h18m-38 38l-38 38V60l18 18h-18m38-38l38 38V60l-18 18h18" stroke="#ffffff"/><g stroke="#bdbdbd" stroke-dasharray="87.94205149991623,27.2539079929771" stroke-dashoffset="87.942051"><path d="M760 40L722 2v18l18-18h-18M760 40l38-38v18L780 2h18M760 40l-38 38V60l18 18h-18M760 40l38 38V60l-18 18h18"/></g><g stroke="#bdbdbd" stroke-dasharray="0,115.19595949289334" stroke-dashoffset="115.195959"><path d="M760 40L722 2v18l18-18h-18M760 40l38-38v18L780 2h18M760 40l-38 38V60l18 18h-18M760 40l38 38V60l-18 18h18"/></g></g><g fill="none" stroke-width="2" stroke-linecap="round" stroke-linejoin="round"><path d="M840 40L802 2v18l18-18h-18m38 38l38-38v18L860 2h18m-38 38l-38 38V60l18 18h-18m38-38l38 38V60l-18 18h18" stroke="#ffffff"/><g stroke="#bdbdbd" stroke-dasharray="79.81464138373045,35.38131810916288" stroke-dashoffset="79.814641"><path d="M840 40L802 2v18l18-18h-18M840 40l38-38v18L860 2h18M840 40l-38 38V60l18 18h-18M840 40l38 38V60l-18 18h18"/></g><g stroke="#bdbdbd" stroke-dasharray="0,115.19595949289334" stroke-dashoffset="115.195959"><path d="M840 40L802 2v18l18-18h-18M840 40l38-38v18L860 2h18M840 40l-38 38V60l18 18h-18M840 40l38 38V60l-18 18h18"/></g></g><g fill="none" stroke-width="2" stroke-linecap="round" stroke-linejoin="round"><path d="M920 40L882 2v18l18-18h-18m38 38l38-38v18L940 2h18m-38 38l-38 38V60l18 18h-18m38-38l38 38V60l-18 18h18" stroke="#ffffff"/><g stroke="#bdbdbd" stroke-dasharray="71.135166057008,44.06079343588532" stroke-dashoffset="71.135166"><path d="M920 40L882 2v18l18-18h-18M920 40l38-38v18L940 2h18M920 40l-38 38V60l18 18h-18M920 40l38 38V60l-18 18h18"/></g><g stroke="#bdbdbd" stroke-dasharray="0,115.19595949289334" stroke-dashoffset="115.195959"><path d="M920 40L882 2v18l18-18h-18M920 40l38-38v18L940 2h18M920 40l-38 38V60l18 18h-18M920 40l38 38V60l-18 18h18"/></g></g><g fill="none" stroke-width="2" stroke-linecap="round" stroke-linejoin="round"><path d="M1000 40L962 2v18l18-18h-18m38 38l38-38v18l-18-18h18m-38 38l-38 38V60l18 18h-18m38-38l38 38V60l-18 18h18" stroke="#ffffff"/><g stroke="#bdbdbd" stroke-dasharray="62.522406594894,52.673552897999336" stroke-dashoffset="62.522407"><path d="M1000 40L962 2v18l18-18h-18M1000 40l38-38v18l-18-18h18M1000 40l-38 38V60l18 18h-18M1000 40l38 38V60l-18 18h18"/></g><g stroke="#bdbdbd" stroke-dasharray="0,115.19595949289334" stroke-dashoffset="115.195959"><path d="M1000 40L962 2v18l18-18h-18M1000 40l38-38v18l-18-18h18M1000 40l-38 38V60l18 18h-18M1000 40l38 38V60l-18 18h18"/></g></g><g fill="none" stroke-width="2" stroke-linecap="round" stroke-linejoin="round"><path d="M1080 40l-38-38v18l18-18h-18m38 38l38-38v18l-18-18h18m-38 38l-38 38V60l18 18h-18m38-38l38 38V60l-18 18h18" stroke="#ffffff"/><g stroke="#bdbdbd" stroke-dasharray="54.45930184574218,60.736657647151155" stroke-dashoffset="54.459302"><path d="M1080 40l-38-38v18l18-18h-18M1080 40l38-38v18l-18-18h18M1080 40l-38 38V60l18 18h-18M1080 40l38 38V60l-18 18h18"/></g><g stroke="#bdbdbd" stroke-dasharray="0,115.19595949289334" stroke-dashoffset="115.195959"><path d="M1080 40l-38-38v18l18-18h-18M1080 40l38-38v18l-18-18h18M1080 40l-38 38V60l18 18h-18M1080 40l38 38V60l-18 18h18"/></g></g><g fill="none" stroke-width="2" stroke-linecap="round" stroke-linejoin="round"><path d="M1160 40l-38-38v18l18-18h-18m38 38l38-38v18l-18-18h18m-38 38l-38 38V60l18 18h-18m38-38l38 38V60l-18 18h18" stroke="#ffffff"/><g stroke="#bdbdbd" stroke-dasharray="47.18548657394859,68.01047291894476" stroke-dashoffset="47.185487"><path d="M1160 40l-38-38v18l18-18h-18M1160 40l38-38v18l-18-18h18M1160 40l-38 38V60l18 18h-18M1160 40l38 38V60l-18 18h18"/></g><g stroke="#bdbdbd" stroke-dasharray="0,115.19595949289334" stroke-dashoffset="115.195959"><path d="M1160 40l-38-38v18l18-18h-18M1160 40l38-38v18l-18-18h18M1160 40l-38 38V60l18 18h-18M1160 40l38 38V60l-18 18h18"/></g></g><g fill="none" stroke-width="2" stroke-linecap="round" stroke-linejoin="round"><path d="M1240 40l-38-38v18l18-18h-18m38 38l38-38v18l-18-18h18m-38 38l-38 38V60l18 18h-18m38-38l38 38V60l-18 18h18" stroke="#ffffff"/><g stroke="#bdbdbd" stroke-dasharray="40.75101776065582,74.44494173223751" stroke-dashoffset="40.751018"><path d="M1240 40l-38-38v18l18-18h-18M1240 40l38-38v18l-18-18h18M1240 40l-38 38V60l18 18h-18M1240 40l38 38V60l-18 18h18"/></g><g stroke="#bdbdbd" stroke-dasharray="0,115.19595949289334" stroke-dashoffset="115.195959"><path d="M1240 40l-38-38v18l18-18h-18M1240 40l38-38v18l-18-18h18M1240 40l-38 38V60l18 18h-18M1240 40l38 38V60l-18 18h18"/></g></g><g fill="none" stroke-width="2" stroke-linecap="round" stroke-linejoin="round"><path d="M1320 40l-38-38v18l18-18h-18m38 38l38-38v18l-18-18h18m-38 38l-38 38V60l18 18h-18m38-38l38 38V60l-18 18h18" stroke="#ffffff"/><g stroke="#bdbdbd" stroke-dasharray="35.10771506706834,80.088244425825" stroke-dashoffset="35.107715"><path d="M1320 40l-38-38v18l18-18h-18M1320 40l38-38v18l-18-18h18M1320 40l-38 38V60l18 18h-18M1320 40l38 38V60l-18 18h18"/></g><g stroke="#bdbdbd" stroke-dasharray="0,115.19595949289334" stroke-dashoffset="115.195959"><path d="M1320 40l-38-38v18l18-18h-18M1320 40l38-38v18l-18-18h18M1320 40l-38 38V60l18 18h-18M1320 40l38 38V60l-18 18h18"/></g></g><g fill="none" stroke-width="2" stroke-linecap="round" stroke-linejoin="round"><path d="M1400 40l-38-38v18l18-18h-18m38 38l38-38v18l-18-18h18m-38 38l-38 38V60l18 18h-18m38-38l38 38V60l-18 18h18" stroke="#ffffff"/><g stroke="#bdbdbd" stroke-dasharray="30.17173508918991,85.02422440370343" stroke-dashoffset="30.171735"><path d="M1400 40l-38-38v18l18-18h-18M1400 40l38-38v18l-18-18h18M1400 40l-38 38V60l18 18h-18M1400 40l38 38V60l-18 18h18"/></g><g stroke="#bdbdbd" stroke-dasharray="0,115.19595949289334" stroke-dashoffset="115.195959"><path d="M1400 40l-38-38v18l18-18h-18M1400 40l38-38v18l-18-18h18M1400 40l-38 38V60l18 18h-18M1400 40l38 38V60l-18 18h18"/></g></g><g fill="none" stroke-width="2" stroke-linecap="round" stroke-linejoin="round"><path d="M1480 40l-38-38v18l18-18h-18m38 38l38-38v18l-18-18h18m-38 38l-38 38V60l18 18h-18m38-38l38 38V60l-18 18h18" stroke="#ffffff"/><g stroke="#bdbdbd" stroke-dasharray="25.854430113296573,89.34152937959676" stroke-dashoffset="25.85443"><path d="M1480 40l-38-38v18l18-18h-18M1480 40l38-38v18l-18-18h18M1480 40l-38 38V60l18 18h-18M1480 40l38 38V60l-18 18h18"/></g><g stroke="#bdbdbd" stroke-dasharray="0,115.19595949289334" stroke-dashoffset="115.195959"><path d="M1480 40l-38-38v18l18-18h-18M1480 40l38-38v18l-18-18h18M1480 40l-38 38V60l18 18h-18M1480 40l38 38V60l-18 18h18"/></g></g><g fill="none" stroke-width="2" stroke-linecap="round" stroke-linejoin="round"><path d="M1560 40l-38-38v18l18-18h-18m38 38l38-38v18l-18-18h18m-38 38l-38 38V60l18 18h-18m38-38l38 38V60l-18 18h18" stroke="#ffffff"/><g stroke="#bdbdbd" stroke-dasharray="22.07455863701076,93.12140085588257" stroke-dashoffset="22.074559"><path d="M1560 40l-38-38v18l18-18h-18M1560 40l38-38v18l-18-18h18M1560 40l-38 38V60l18 18h-18M1560 40l38 38V60l-18 18h18"/></g><g stroke="#bdbdbd" stroke-dasharray="0,115.19595949289334" stroke-dashoffset="115.195959"><path d="M1560 40l-38-38v18l18-18h-18M1560 40l38-38v18l-18-18h18M1560 40l-38 38V60l18 18h-18M1560 40l38 38V60l-18 18h18"/></g></g><g fill="none" stroke-width="2" stroke-linecap="round" stroke-linejoin="round"><path d="M1640 40l-38-38v18l18-18h-18m38 38l38-38v18l-18-18h18m-38 38l-38 38V60l18 18h-18m38-38l38 38V60l-18 18h18" stroke="#ffffff"/><g stroke="#bdbdbd" stroke-dasharray="18.76177625041996,96.43418324247338" stroke-dashoffset="18.761776"><path d="M1640 40l-38-38v18l18-18h-18M1640 40l38-38v18l-18-18h18M1640 40l-38 38V60l18 18h-18M1640 40l38 38V60l-18 18h18"/></g><g stroke="#bdbdbd" stroke-dasharray="0,115.19595949289334" stroke-dashoffset="115.195959"><path d="M1640 40l-38-38v18l18-18h-18M1640 40l38-38v18l-18-18h18M1640 40l-38 38V60l18 18h-18M1640 40l38 38V60l-18 18h18"/></g></g><g fill="none" stroke-width="2" stroke-linecap="round" stroke-linejoin="round"><path d="M1720 40l-38-38v18l18-18h-18m38 38l38-38v18l-18-18h18m-38 38l-38 38V60l18 18h-18m38-38l38 38V60l-18 18h18" stroke="#ffffff"/><g stroke="#bdbdbd" stroke-dasharray="15.856584708154571,99.33937478473877" stroke-dashoffset="15.856585"><path d="M1720 40l-38-38v18l18-18h-18M1720 40l38-38v18l-18-18h18M1720 40l-38 38V60l18 18h-18M1720 40l38 38V60l-18 18h18"/></g><g stroke="#bdbdbd" stroke-dasharray="0,115.19595949289334" stroke-dashoffset="115.195959"><path d="M1720 40l-38-38v18l18-18h-18M1720 40l38-38v18l-18-18h18M1720 40l-38 38V60l18 18h-18M1720 40l38 38V60l-18 18h18"/></g></g><g fill="none" stroke-width="2" stroke-linecap="round" stroke-linejoin="round"><path d="M1800 40l-38-38v18l18-18h-18m38 38l38-38v18l-18-18h18m-38 38l-38 38V60l18 18h-18m38-38l38 38V60l-18 18h18" stroke="#ffffff"/><g stroke="#bdbdbd" stroke-dasharray="13.30906854339684,101.88689094949649" stroke-dashoffset="13.309069"><path d="M1800 40l-38-38v18l18-18h-18M1800 40l38-38v18l-18-18h18M1800 40l-38 38V60l18 18h-18M1800 40l38 38V60l-18 18h18"/></g><g stroke="#bdbdbd" stroke-dasharray="0,115.19595949289334" stroke-dashoffset="115.195959"><path d="M1800 40l-38-38v18l18-18h-18M1800 40l38-38v18l-18-18h18M1800 40l-38 38V60l18 18h-18M1800 40l38 38V60l-18 18h18"/></g></g><g fill="none" stroke-width="2" stroke-linecap="round" stroke-linejoin="round"><path d="M1880 40l-38-38v18l18-18h-18m38 38l38-38v18l-18-18h18m-38 38l-38 38V60l18 18h-18m38-38l38 38V60l-18 18h18" stroke="#ffffff"/><g stroke="#bdbdbd" stroke-dasharray="11.077377349432473,104.11858214346087" stroke-dashoffset="11.077377"><path d="M1880 40l-38-38v18l18-18h-18M1880 40l38-38v18l-18-18h18M1880 40l-38 38V60l18 18h-18M1880 40l38 38V60l-18 18h18"/></g><g stroke="#bdbdbd" stroke-dasharray="0,115.19595949289334" stroke-dashoffset="115.195959"><path d="M1880 40l-38-38v18l18-18h-18M1880 40l38-38v18l-18-18h18M1880 40l-38 38V60l18 18h-18M1880 40l38 38V60l-18 18h18"/></g></g><g fill="none" stroke-width="2" stroke-linecap="round" stroke-linejoin="round"><path d="M1960 40l-38-38v18l18-18h-18m38 38l38-38v18l-18-18h18m-38 38l-38 38V60l18 18h-18m38-38l38 38V60l-18 18h18" stroke="#ffffff"/><g stroke="#bdbdbd" stroke-dasharray="9.126309642928632,106.0696498499647" stroke-dashoffset="9.12631"><path d="M1960 40l-38-38v18l18-18h-18M1960 40l38-38v18l-18-18h18M1960 40l-38 38V60l18 18h-18M1960 40l38 38V60l-18 18h18"/></g><g stroke="#bdbdbd" stroke-dasharray="0,115.19595949289334" stroke-dashoffset="115.195959"><path d="M1960 40l-38-38v18l18-18h-18M1960 40l38-38v18l-18-18h18M1960 40l-38 38V60l18 18h-18M1960 40l38 38V60l-18 18h18"/></g></g><g fill="none" stroke-width="2" stroke-linecap="round" stroke-linejoin="round"><path d="M2040 40l-38-38v18l18-18h-18m38 38l38-38v18l-18-18h18m-38 38l-38 38V60l18 18h-18m38-38l38 38V60l-18 18h18" stroke="#ffffff"/><g stroke="#bdbdbd" stroke-dasharray="7.426104229298197,107.76985526359513" stroke-dashoffset="7.426104"><path d="M2040 40l-38-38v18l18-18h-18M2040 40l38-38v18l-18-18h18M2040 40l-38 38V60l18 18h-18M2040 40l38 38V60l-18 18h18"/></g><g stroke="#bdbdbd" stroke-dasharray="0.1957643382290844,115.00019515466425" stroke-dashoffset="115.195959"><path d="M2040 40l-38-38v18l18-18h-18M2040 40l38-38v18l-18-18h18M2040 40l-38 38V60l18 18h-18M2040 40l38 38V60l-18 18h18"/></g></g><g fill="none" stroke-width="2" stroke-linecap="round" stroke-linejoin="round"><path d="M2120 40l-38-38v18l18-18h-18m38 38l38-38v18l-18-18h18m-38 38l-38 38V60l18 18h-18m38-38l38 38V60l-18 18h18" stroke="#ffffff"/><g stroke="#bdbdbd" stroke-dasharray="5.951447618348914,109.24451187454443" stroke-dashoffset="5.951448"><path d="M2120 40l-38-38v18l18-18h-18M2120 40l38-38v18l-18-18h18M2120 40l-38 38V60l18 18h-18M2120 40l38 38V60l-18 18h18"/></g><g stroke="#bdbdbd" stroke-dasharray="0.8305825818457729,114.36537691104756" stroke-dashoffset="115.195959"><path d="M2120 40l-38-38v18l18-18h-18M2120 40l38-38v18l-18-18h18M2120 40l-38 38V60l18 18h-18M2120 40l38 38V60l-18 18h18"/></g></g><g fill="none" stroke-width="2" stroke-linecap="round" stroke-linejoin="round"><path d="M2200 40l-38-38v18l18-18h-18m38 38l38-38v18l-18-18h18m-38 38l-38 38V60l18 18h-18m38-38l38 38V60l-18 18h18" stroke="#ffffff"/><g stroke="#bdbdbd" stroke-dasharray="4.680672552675417,110.51528694021792" stroke-dashoffset="4.680673"><path d="M2200 40l-38-38v18l18-18h-18M2200 40l38-38v18l-18-18h18M2200 40l-38 38V60l18 18h-18M2200 40l38 38V60l-18 18h18"/></g><g stroke="#bdbdbd" stroke-dasharray="1.98930828008547,113.20665121280786" stroke-dashoffset="115.195959"><path d="M2200 40l-38-38v18l18-18h-18M2200 40l38-38v18l-18-18h18M2200 40l-38 38V60l18 18h-18M2200 40l38 38V60l-18 18h18"/></g></g><g fill="none" stroke-width="2" stroke-linecap="round" stroke-linejoin="round"><path d="M2280 40l-38-38v18l18-18h-18m38 38l38-38v18l-18-18h18m-38 38l-38 38V60l18 18h-18m38-38l38 38V60l-18 18h18" stroke="#ffffff"/><g stroke="#bdbdbd" stroke-dasharray="3.595114908667024,111.60084458422631" stroke-dashoffset="3.595115"><path d="M2280 40l-38-38v18l18-18h-18M2280 40l38-38v18l-18-18h18M2280 40l-38 38V60l18 18h-18M2280 40l38 38V60l-18 18h18"/></g><g stroke="#bdbdbd" stroke-dasharray="3.7785108463611756,111.41744864653216" stroke-dashoffset="115.195959"><path d="M2280 40l-38-38v18l18-18h-18M2280 40l38-38v18l-18-18h18M2280 40l-38 38V60l18 18h-18M2280 40l38 38V60l-18 18h18"/></g></g><g fill="none" stroke-width="2" stroke-linecap="round" stroke-linejoin="round"><path d="M2360 40l-38-38v18l18-18h-18m38 38l38-38v18l-18-18h18m-38 38l-38 38V60l18 18h-18m38-38l38 38V60l-18 18h18" stroke="#ffffff"/><g stroke="#bdbdbd" stroke-dasharray="2.6785979907999304,112.51736150209341" stroke-dashoffset="2.678598"><path d="M2360 40l-38-38v18l18-18h-18M2360 40l38-38v18l-18-18h18M2360 40l-38 38V60l18 18h-18M2360 40l38 38V60l-18 18h18"/></g><g stroke="#bdbdbd" stroke-dasharray="6.330521978679182,108.86543751421415" stroke-dashoffset="115.195959"><path d="M2360 40l-38-38v18l18-18h-18M2360 40l38-38v18l-18-18h18M2360 40l-38 38V60l18 18h-18M2360 40l38 38V60l-18 18h18"/></g></g><g fill="none" stroke-width="2" stroke-linecap="round" stroke-linejoin="round"><path d="M2440 40l-38-38v18l18-18h-18m38 38l38-38v18l-18-18h18m-38 38l-38 38V60l18 18h-18m38-38l38 38V60l-18 18h18" stroke="#ffffff"/><g stroke="#bdbdbd" stroke-dasharray="1.9170179325413255,113.27894156035201" stroke-dashoffset="1.917018"><path d="M2440 40l-38-38v18l18-18h-18M2440 40l38-38v18l-18-18h18M2440 40l-38 38V60l18 18h-18M2440 40l38 38V60l-18 18h18"/></g><g stroke="#bdbdbd" stroke-dasharray="9.80380761165629,105.39215188123704" stroke-dashoffset="115.195959"><path d="M2440 40l-38-38v18l18-18h-18M2440 40l38-38v18l-18-18h18M2440 40l-38 38V60l18 18h-18M2440 40l38 38V60l-18 18h18"/></g></g><g fill="none" stroke-width="2" stroke-linecap="round" stroke-linejoin="round"><path d="M2520 40l-38-38v18l18-18h-18m38 38l38-38v18l-18-18h18m-38 38l-38 38V60l18 18h-18m38-38l38 38V60l-18 18h18" stroke="#ffffff"/><g stroke="#bdbdbd" stroke-dasharray="1.2980089446162708,113.89795054827707" stroke-dashoffset="1.298009"><path d="M2520 40l-38-38v18l18-18h-18M2520 40l38-38v18l-18-18h18M2520 40l-38 38V60l18 18h-18M2520 40l38 38V60l-18 18h18"/></g><g stroke="#bdbdbd" stroke-dasharray="14.371200282123976,100.82475921076936" stroke-dashoffset="115.195959"><path d="M2520 40l-38-38v18l18-18h-18M2520 40l38-38v18l-18-18h18M2520 40l-38 38V60l18 18h-18M2520 40l38 38V60l-18 18h18"/></g></g><g fill="none" stroke-width="2" stroke-linecap="round" stroke-linejoin="round"><path d="M2600 40l-38-38v18l18-18h-18m38 38l38-38v18l-18-18h18m-38 38l-38 38V60l18 18h-18m38-38l38 38V60l-18 18h18" stroke="#ffffff"/><g stroke="#bdbdbd" stroke-dasharray="0.8106716060967671,114.38528788679658" stroke-dashoffset=".810672"><path d="M2600 40l-38-38v18l18-18h-18M2600 40l38-38v18l-18-18h18M2600 40l-38 38V60l18 18h-18M2600 40l38 38V60l-18 18h18"/></g><g stroke="#bdbdbd" stroke-dasharray="20.17868010781367,95.01727938507966" stroke-dashoffset="115.195959"><path d="M2600 40l-38-38v18l18-18h-18M2600 40l38-38v18l-18-18h18M2600 40l-38 38V60l18 18h-18M2600 40l38 38V60l-18 18h18"/></g></g><g fill="none" stroke-width="2" stroke-linecap="round" stroke-linejoin="round"><path d="M2680 40l-38-38v18l18-18h-18m38 38l38-38v18l-18-18h18m-38 38l-38 38V60l18 18h-18m38-38l38 38V60l-18 18h18" stroke="#ffffff"/><g stroke="#bdbdbd" stroke-dasharray="0.4453510535095213,114.75060843938381" stroke-dashoffset=".445351"><path d="M2680 40l-38-38v18l18-18h-18M2680 40l38-38v18l-18-18h18M2680 40l-38 38V60l18 18h-18M2680 40l38 38V60l-18 18h18"/></g><g stroke="#bdbdbd" stroke-dasharray="27.2539079929771,87.94205149991623" stroke-dashoffset="115.195959"><path d="M2680 40l-38-38v18l18-18h-18M2680 40l38-38v18l-18-18h18M2680 40l-38 38V60l18 18h-18M2680 40l38 38V60l-18 18h18"/></g></g><g fill="none" stroke-width="2" stroke-linecap="round" stroke-linejoin="round"><path d="M2760 40l-38-38v18l18-18h-18m38 38l38-38v18l-18-18h18m-38 38l-38 38V60l18 18h-18m38-38l38 38V60l-18 18h18" stroke="#ffffff"/><g stroke="#bdbdbd" stroke-dasharray="0.19345482418516144,115.00250466870817" stroke-dashoffset=".193455"><path d="M2760 40l-38-38v18l18-18h-18M2760 40l38-38v18l-18-18h18M2760 40l-38 38V60l18 18h-18M2760 40l38 38V60l-18 18h18"/></g><g stroke="#bdbdbd" stroke-dasharray="35.38131810916288,79.81464138373045" stroke-dashoffset="115.195959"><path d="M2760 40l-38-38v18l18-18h-18M2760 40l38-38v18l-18-18h18M2760 40l-38 38V60l18 18h-18M2760 40l38 38V60l-18 18h18"/></g></g><g fill="none" stroke-width="2" stroke-linecap="round" stroke-linejoin="round"><path d="M2840 40l-38-38v18l18-18h-18m38 38l38-38v18l-18-18h18m-38 38l-38 38V60l18 18h-18m38-38l38 38V60l-18 18h18" stroke="#ffffff"/><g stroke="#bdbdbd" stroke-dasharray="0.047302369580187985,115.14865712331314" stroke-dashoffset=".047302"><path d="M2840 40l-38-38v18l18-18h-18M2840 40l38-38v18l-18-18h18M2840 40l-38 38V60l18 18h-18M2840 40l38 38V60l-18 18h18"/></g><g stroke="#bdbdbd" stroke-dasharray="44.060793435885394,71.13516605700795" stroke-dashoffset="115.195959"><path d="M2840 40l-38-38v18l18-18h-18M2840 40l38-38v18l-18-18h18M2840 40l-38 38V60l18 18h-18M2840 40l38 38V60l-18 18h18"/></g></g><g fill="none" stroke-width="2" stroke-linecap="round" stroke-linejoin="round"><path d="M2920 40l-38-38v18l18-18h-18m38 38l38-38v18l-18-18h18m-38 38l-38 38V60l18 18h-18m38-38l38 38V60l-18 18h18" stroke="#ffffff"/><g stroke="#bdbdbd" stroke-dasharray="0,115.19595949289334" stroke-dashoffset="115.195959"><path d="M2920 40l-38-38v18l18-18h-18M2920 40l38-38v18l-18-18h18M2920 40l-38 38V60l18 18h-18M2920 40l38 38V60l-18 18h18"/></g><g stroke="#bdbdbd" stroke-dasharray="52.673552897999336,62.522406594894" stroke-dashoffset="115.195959"><path d="M2920 40l-38-38v18l18-18h-18M2920 40l38-38v18l-18-18h18M2920 40l-38 38V60l18 18h-18M2920 40l38 38V60l-18 18h18"/></g></g><g fill="none" stroke-width="2" stroke-linecap="round" stroke-linejoin="round"><path d="M3000 40l-38-38v18l18-18h-18m38 38l38-38v18l-18-18h18m-38 38l-38 38V60l18 18h-18m38-38l38 38V60l-18 18h18" stroke="#ffffff"/><g stroke="#bdbdbd" stroke-dasharray="0,115.19595949289334" stroke-dashoffset="115.195959"><path d="M3000 40l-38-38v18l18-18h-18M3000 40l38-38v18l-18-18h18M3000 40l-38 38V60l18 18h-18M3000 40l38 38V60l-18 18h18"/></g><g stroke="#bdbdbd" stroke-dasharray="60.73665764715118,54.459301845742154" stroke-dashoffset="115.195959"><path d="M3000 40l-38-38v18l18-18h-18M3000 40l38-38v18l-18-18h18M3000 40l-38 38V60l18 18h-18M3000 40l38 38V60l-18 18h18"/></g></g><g fill="none" stroke-width="2" stroke-linecap="round" stroke-linejoin="round"><path d="M3080 40l-38-38v18l18-18h-18m38 38l38-38v18l-18-18h18m-38 38l-38 38V60l18 18h-18m38-38l38 38V60l-18 18h18" stroke="#ffffff"/><g stroke="#bdbdbd" stroke-dasharray="0,115.19595949289334" stroke-dashoffset="115.195959"><path d="M3080 40l-38-38v18l18-18h-18M3080 40l38-38v18l-18-18h18M3080 40l-38 38V60l18 18h-18M3080 40l38 38V60l-18 18h18"/></g><g stroke="#bdbdbd" stroke-dasharray="68.01047291894474,47.185486573948594" stroke-dashoffset="115.195959"><path d="M3080 40l-38-38v18l18-18h-18M3080 40l38-38v18l-18-18h18M3080 40l-38 38V60l18 18h-18M3080 40l38 38V60l-18 18h18"/></g></g><g fill="none" stroke-width="2" stroke-linecap="round" stroke-linejoin="round"><path d="M3160 40l-38-38v18l18-18h-18m38 38l38-38v18l-18-18h18m-38 38l-38 38V60l18 18h-18m38-38l38 38V60l-18 18h18" stroke="#ffffff"/><g stroke="#bdbdbd" stroke-dasharray="0,115.19595949289334" stroke-dashoffset="115.195959"><path d="M3160 40l-38-38v18l18-18h-18M3160 40l38-38v18l-18-18h18M3160 40l-38 38V60l18 18h-18M3160 40l38 38V60l-18 18h18"/></g><g stroke="#bdbdbd" stroke-dasharray="74.44494173223751,40.75101776065582" stroke-dashoffset="115.195959"><path d="M3160 40l-38-38v18l18-18h-18M3160 40l38-38v18l-18-18h18M3160 40l-38 38V60l18 18h-18M3160 40l38 38V60l-18 18h18"/></g></g><g fill="none" stroke-width="2" stroke-linecap="round" stroke-linejoin="round"><path d="M3240 40l-38-38v18l18-18h-18m38 38l38-38v18l-18-18h18m-38 38l-38 38V60l18 18h-18m38-38l38 38V60l-18 18h18" stroke="#ffffff"/><g stroke="#bdbdbd" stroke-dasharray="0,115.19595949289334" stroke-dashoffset="115.195959"><path d="M3240 40l-38-38v18l18-18h-18M3240 40l38-38v18l-18-18h18M3240 40l-38 38V60l18 18h-18M3240 40l38 38V60l-18 18h18"/></g><g stroke="#bdbdbd" stroke-dasharray="80.08824442582495,35.107715067068376" stroke-dashoffset="115.195959"><path d="M3240 40l-38-38v18l18-18h-18M3240 40l38-38v18l-18-18h18M3240 40l-38 38V60l18 18h-18M3240 40l38 38V60l-18 18h18"/></g></g><g fill="none" stroke-width="2" stroke-linecap="round" stroke-linejoin="round"><path d="M3320 40l-38-38v18l18-18h-18m38 38l38-38v18l-18-18h18m-38 38l-38 38V60l18 18h-18m38-38l38 38V60l-18 18h18" stroke="#ffffff"/><g stroke="#bdbdbd" stroke-dasharray="0,115.19595949289334" stroke-dashoffset="115.195959"><path d="M3320 40l-38-38v18l18-18h-18M3320 40l38-38v18l-18-18h18M3320 40l-38 38V60l18 18h-18M3320 40l38 38V60l-18 18h18"/></g><g stroke="#bdbdbd" stroke-dasharray="85.02422440370344,30.171735089189898" stroke-dashoffset="115.195959"><path d="M3320 40l-38-38v18l18-18h-18M3320 40l38-38v18l-18-18h18M3320 40l-38 38V60l18 18h-18M3320 40l38 38V60l-18 18h18"/></g></g><g fill="none" stroke-width="2" stroke-linecap="round" stroke-linejoin="round"><path d="M3400 40l-38-38v18l18-18h-18m38 38l38-38v18l-18-18h18m-38 38l-38 38V60l18 18h-18m38-38l38 38V60l-18 18h18" stroke="#ffffff"/><g stroke="#bdbdbd" stroke-dasharray="0,115.19595949289334" stroke-dashoffset="115.195959"><path d="M3400 40l-38-38v18l18-18h-18M3400 40l38-38v18l-18-18h18M3400 40l-38 38V60l18 18h-18M3400 40l38 38V60l-18 18h18"/></g><g stroke="#bdbdbd" stroke-dasharray="89.34152937959676,25.854430113296573" stroke-dashoffset="115.195959"><path d="M3400 40l-38-38v18l18-18h-18M3400 40l38-38v18l-18-18h18M3400 40l-38 38V60l18 18h-18M3400 40l38 38V60l-18 18h18"/></g></g><g fill="none" stroke-width="2" stroke-linecap="round" stroke-linejoin="round"><path d="M3480 40l-38-38v18l18-18h-18m38 38l38-38v18l-18-18h18m-38 38l-38 38V60l18 18h-18m38-38l38 38V60l-18 18h18" stroke="#ffffff"/><g stroke="#bdbdbd" stroke-dasharray="0,115.19595949289334" stroke-dashoffset="115.195959"><path d="M3480 40l-38-38v18l18-18h-18M3480 40l38-38v18l-18-18h18M3480 40l-38 38V60l18 18h-18M3480 40l38 38V60l-18 18h18"/></g><g stroke="#bdbdbd" stroke-dasharray="93.12140085588257,22.07455863701076" stroke-dashoffset="115.195959"><path d="M3480 40l-38-38v18l18-18h-18M3480 40l38-38v18l-18-18h18M3480 40l-38 38V60l18 18h-18M3480 40l38 38V60l-18 18h18"/></g></g><g fill="none" stroke-width="2" stroke-linecap="round" stroke-linejoin="round"><path d="M3560 40l-38-38v18l18-18h-18m38 38l38-38v18l-18-18h18m-38 38l-38 38V60l18 18h-18m38-38l38 38V60l-18 18h18" stroke="#ffffff"/><g stroke="#bdbdbd" stroke-dasharray="0,115.19595949289334" stroke-dashoffset="115.195959"><path d="M3560 40l-38-38v18l18-18h-18M3560 40l38-38v18l-18-18h18M3560 40l-38 38V60l18 18h-18M3560 40l38 38V60l-18 18h18"/></g><g stroke="#bdbdbd" stroke-dasharray="96.43418324247338,18.76177625041996" stroke-dashoffset="115.195959"><path d="M3560 40l-38-38v18l18-18h-18M3560 40l38-38v18l-18-18h18M3560 40l-38 38V60l18 18h-18M3560 40l38 38V60l-18 18h18"/></g></g><g fill="none" stroke-width="2" stroke-linecap="round" stroke-linejoin="round"><path d="M3640 40l-38-38v18l18-18h-18m38 38l38-38v18l-18-18h18m-38 38l-38 38V60l18 18h-18m38-38l38 38V60l-18 18h18" stroke="#ffffff"/><g stroke="#bdbdbd" stroke-dasharray="0,115.19595949289334" stroke-dashoffset="115.195959"><path d="M3640 40l-38-38v18l18-18h-18M3640 40l38-38v18l-18-18h18M3640 40l-38 38V60l18 18h-18M3640 40l38 38V60l-18 18h18"/></g><g stroke="#bdbdbd" stroke-dasharray="99.33937478473877,15.856584708154571" stroke-dashoffset="115.195959"><path d="M3640 40l-38-38v18l18-18h-18M3640 40l38-38v18l-18-18h18M3640 40l-38 38V60l18 18h-18M3640 40l38 38V60l-18 18h18"/></g></g><g fill="none" stroke-width="2" stroke-linecap="round" stroke-linejoin="round"><path d="M3720 40l-38-38v18l18-18h-18m38 38l38-38v18l-18-18h18m-38 38l-38 38V60l18 18h-18m38-38l38 38V60l-18 18h18" stroke="#ffffff"/><g stroke="#bdbdbd" stroke-dasharray="0,115.19595949289334" stroke-dashoffset="115.195959"><path d="M3720 40l-38-38v18l18-18h-18M3720 40l38-38v18l-18-18h18M3720 40l-38 38V60l18 18h-18M3720 40l38 38V60l-18 18h18"/></g><g stroke="#bdbdbd" stroke-dasharray="101.8868909494965,13.309068543396828" stroke-dashoffset="115.195959"><path d="M3720 40l-38-38v18l18-18h-18M3720 40l38-38v18l-18-18h18M3720 40l-38 38V60l18 18h-18M3720 40l38 38V60l-18 18h18"/></g></g><g fill="none" stroke-width="2" stroke-linecap="round" stroke-linejoin="round"><path d="M3800 40l-38-38v18l18-18h-18m38 38l38-38v18l-18-18h18m-38 38l-38 38V60l18 18h-18m38-38l38 38V60l-18 18h18" stroke="#ffffff"/><g stroke="#bdbdbd" stroke-dasharray="0,115.19595949289334" stroke-dashoffset="115.195959"><path d="M3800 40l-38-38v18l18-18h-18M3800 40l38-38v18l-18-18h18M3800 40l-38 38V60l18 18h-18M3800 40l38 38V60l-18 18h18"/></g><g stroke="#bdbdbd" stroke-dasharray="104.11858214346087,11.077377349432473" stroke-dashoffset="115.195959"><path d="M3800 40l-38-38v18l18-18h-18M3800 40l38-38v18l-18-18h18M3800 40l-38 38V60l18 18h-18M3800 40l38 38V60l-18 18h18"/></g></g><g fill="none" stroke-width="2" stroke-linecap="round" stroke-linejoin="round"><path d="M3880 40l-38-38v18l18-18h-18m38 38l38-38v18l-18-18h18m-38 38l-38 38V60l18 18h-18m38-38l38 38V60l-18 18h18" stroke="#ffffff"/><g stroke="#bdbdbd" stroke-dasharray="0,115.19595949289334" stroke-dashoffset="115.195959"><path d="M3880 40l-38-38v18l18-18h-18M3880 40l38-38v18l-18-18h18M3880 40l-38 38V60l18 18h-18M3880 40l38 38V60l-18 18h18"/></g><g stroke="#bdbdbd" stroke-dasharray="106.0696498499647,9.126309642928632" stroke-dashoffset="115.195959"><path d="M3880 40l-38-38v18l18-18h-18M3880 40l38-38v18l-18-18h18M3880 40l-38 38V60l18 18h-18M3880 40l38 38V60l-18 18h18"/></g></g><g fill="none" stroke-width="2" stroke-linecap="round" stroke-linejoin="round"><path d="M3960 40l-38-38v18l18-18h-18m38 38l38-38v18l-18-18h18m-38 38l-38 38V60l18 18h-18m38-38l38 38V60l-18 18h18" stroke="#ffffff"/><g stroke="#bdbdbd" stroke-dasharray="0,115.19595949289334" stroke-dashoffset="115.195959"><path d="M3960 40l-38-38v18l18-18h-18M3960 40l38-38v18l-18-18h18M3960 40l-38 38V60l18 18h-18M3960 40l38 38V60l-18 18h18"/></g><g stroke="#bdbdbd" stroke-dasharray="107.76985526359515,7.4261042292981845" stroke-dashoffset="115.195959"><path d="M3960 40l-38-38v18l18-18h-18M3960 40l38-38v18l-18-18h18M3960 40l-38 38V60l18 18h-18M3960 40l38 38V60l-18 18h18"/></g></g><g fill="none" stroke-width="2" stroke-linecap="round" stroke-linejoin="round"><path d="M4040 40l-38-38v18l18-18h-18m38 38l38-38v18l-18-18h18m-38 38l-38 38V60l18 18h-18m38-38l38 38V60l-18 18h18" stroke="#ffffff"/><g stroke="#bdbdbd" stroke-dasharray="0,115.19595949289334" stroke-dashoffset="115.195959"><path d="M4040 40l-38-38v18l18-18h-18M4040 40l38-38v18l-18-18h18M4040 40l-38 38V60l18 18h-18M4040 40l38 38V60l-18 18h18"/></g><g stroke="#bdbdbd" stroke-dasharray="109.24451187454443,5.951447618348914" stroke-dashoffset="115.195959"><path d="M4040 40l-38-38v18l18-18h-18M4040 40l38-38v18l-18-18h18M4040 40l-38 38V60l18 18h-18M4040 40l38 38V60l-18 18h18"/></g></g><g fill="none" stroke-width="2" stroke-linecap="round" stroke-linejoin="round"><path d="M4120 40l-38-38v18l18-18h-18m38 38l38-38v18l-18-18h18m-38 38l-38 38V60l18 18h-18m38-38l38 38V60l-18 18h18" stroke="#ffffff"/><g stroke="#bdbdbd" stroke-dasharray="0,115.19595949289334" stroke-dashoffset="115.195959"><path d="M4120 40l-38-38v18l18-18h-18M4120 40l38-38v18l-18-18h18M4120 40l-38 38V60l18 18h-18M4120 40l38 38V60l-18 18h18"/></g><g stroke="#bdbdbd" stroke-dasharray="110.51528694021792,4.680672552675417" stroke-dashoffset="115.195959"><path d="M4120 40l-38-38v18l18-18h-18M4120 40l38-38v18l-18-18h18M4120 40l-38 38V60l18 18h-18M4120 40l38 38V60l-18 18h18"/></g></g><g fill="none" stroke-width="2" stroke-linecap="round" stroke-linejoin="round"><path d="M4200 40l-38-38v18l18-18h-18m38 38l38-38v18l-18-18h18m-38 38l-38 38V60l18 18h-18m38-38l38 38V60l-18 18h18" stroke="#ffffff"/><g stroke="#bdbdbd" stroke-dasharray="0,115.19595949289334" stroke-dashoffset="115.195959"><path d="M4200 40l-38-38v18l18-18h-18M4200 40l38-38v18l-18-18h18M4200 40l-38 38V60l18 18h-18M4200 40l38 38V60l-18 18h18"/></g><g stroke="#bdbdbd" stroke-dasharray="111.60084458422632,3.595114908667011" stroke-dashoffset="115.195959"><path d="M4200 40l-38-38v18l18-18h-18M4200 40l38-38v18l-18-18h18M4200 40l-38 38V60l18 18h-18M4200 40l38 38V60l-18 18h18"/></g></g><g fill="none" stroke-width="2" stroke-linecap="round" stroke-linejoin="round"><path d="M4280 40l-38-38v18l18-18h-18m38 38l38-38v18l-18-18h18m-38 38l-38 38V60l18 18h-18m38-38l38 38V60l-18 18h18" stroke="#ffffff"/><g stroke="#bdbdbd" stroke-dasharray="0,115.19595949289334" stroke-dashoffset="115.195959"><path d="M4280 40l-38-38v18l18-18h-18M4280 40l38-38v18l-18-18h18M4280 40l-38 38V60l18 18h-18M4280 40l38 38V60l-18 18h18"/></g><g stroke="#bdbdbd" stroke-dasharray="112.51736150209341,2.6785979907999304" stroke-dashoffset="115.195959"><path d="M4280 40l-38-38v18l18-18h-18M4280 40l38-38v18l-18-18h18M4280 40l-38 38V60l18 18h-18M4280 40l38 38V60l-18 18h18"/></g></g><g fill="none" stroke-width="2" stroke-linecap="round" stroke-linejoin="round"><path d="M4360 40l-38-38v18l18-18h-18m38 38l38-38v18l-18-18h18m-38 38l-38 38V60l18 18h-18m38-38l38 38V60l-18 18h18" stroke="#ffffff"/><g stroke="#bdbdbd" stroke-dasharray="0,115.19595949289334" stroke-dashoffset="115.195959"><path d="M4360 40l-38-38v18l18-18h-18M4360 40l38-38v18l-18-18h18M4360 40l-38 38V60l18 18h-18M4360 40l38 38V60l-18 18h18"/></g><g stroke="#bdbdbd" stroke-dasharray="113.27894156035201,1.9170179325413255" stroke-dashoffset="115.195959"><path d="M4360 40l-38-38v18l18-18h-18M4360 40l38-38v18l-18-18h18M4360 40l-38 38V60l18 18h-18M4360 40l38 38V60l-18 18h18"/></g></g><g fill="none" stroke-width="2" stroke-linecap="round" stroke-linejoin="round"><path d="M4440 40l-38-38v18l18-18h-18m38 38l38-38v18l-18-18h18m-38 38l-38 38V60l18 18h-18m38-38l38 38V60l-18 18h18" stroke="#ffffff"/><g stroke="#bdbdbd" stroke-dasharray="0,115.19595949289334" stroke-dashoffset="115.195959"><path d="M4440 40l-38-38v18l18-18h-18M4440 40l38-38v18l-18-18h18M4440 40l-38 38V60l18 18h-18M4440 40l38 38V60l-18 18h18"/></g><g stroke="#bdbdbd" stroke-dasharray="113.89795054827707,1.2980089446162708" stroke-dashoffset="115.195959"><path d="M4440 40l-38-38v18l18-18h-18M4440 40l38-38v18l-18-18h18M4440 40l-38 38V60l18 18h-18M4440 40l38 38V60l-18 18h18"/></g></g><g fill="none" stroke-width="2" stroke-linecap="round" stroke-linejoin="round"><path d="M4520 40l-38-38v18l18-18h-18m38 38l38-38v18l-18-18h18m-38 38l-38 38V60l18 18h-18m38-38l38 38V60l-18 18h18" stroke="#ffffff"/><g stroke="#bdbdbd" stroke-dasharray="0,115.19595949289334" stroke-dashoffset="115.195959"><path d="M4520 40l-38-38v18l18-18h-18M4520 40l38-38v18l-18-18h18M4520 40l-38 38V60l18 18h-18M4520 40l38 38V60l-18 18h18"/></g><g stroke="#bdbdbd" stroke-dasharray="114.38528788679658,0.8106716060967671" stroke-dashoffset="115.195959"><path d="M4520 40l-38-38v18l18-18h-18M4520 40l38-38v18l-18-18h18M4520 40l-38 38V60l18 18h-18M4520 40l38 38V60l-18 18h18"/></g></g><g fill="none" stroke-width="2" stroke-linecap="round" stroke-linejoin="round"><path d="M4600 40l-38-38v18l18-18h-18m38 38l38-38v18l-18-18h18m-38 38l-38 38V60l18 18h-18m38-38l38 38V60l-18 18h18" stroke="#ffffff"/><g stroke="#bdbdbd" stroke-dasharray="0,115.19595949289334" stroke-dashoffset="115.195959"><path d="M4600 40l-38-38v18l18-18h-18M4600 40l38-38v18l-18-18h18M4600 40l-38 38V60l18 18h-18M4600 40l38 38V60l-18 18h18"/></g><g stroke="#bdbdbd" stroke-dasharray="114.75060843938381,0.4453510535095213" stroke-dashoffset="115.195959"><path d="M4600 40l-38-38v18l18-18h-18M4600 40l38-38v18l-18-18h18M4600 40l-38 38V60l18 18h-18M4600 40l38 38V60l-18 18h18"/></g></g><g fill="none" stroke-width="2" stroke-linecap="round" stroke-linejoin="round"><path d="M4680 40l-38-38v18l18-18h-18m38 38l38-38v18l-18-18h18m-38 38l-38 38V60l18 18h-18m38-38l38 38V60l-18 18h18" stroke="#ffffff"/><g stroke="#bdbdbd" stroke-dasharray="0,115.19595949289334" stroke-dashoffset="115.195959"><path d="M4680 40l-38-38v18l18-18h-18M4680 40l38-38v18l-18-18h18M4680 40l-38 38V60l18 18h-18M4680 40l38 38V60l-18 18h18"/></g><g stroke="#bdbdbd" stroke-dasharray="115.00250466870817,0.19345482418516144" stroke-dashoffset="115.195959"><path d="M4680 40l-38-38v18l18-18h-18M4680 40l38-38v18l-18-18h18M4680 40l-38 38V60l18 18h-18M4680 40l38 38V60l-18 18h18"/></g></g><g fill="none" stroke-width="2" stroke-linecap="round" stroke-linejoin="round"><path d="M4760 40l-38-38v18l18-18h-18m38 38l38-38v18l-18-18h18m-38 38l-38 38V60l18 18h-18m38-38l38 38V60l-18 18h18" stroke="#ffffff"/><g stroke="#bdbdbd" stroke-dasharray="0,115.19595949289334" stroke-dashoffset="115.195959"><path d="M4760 40l-38-38v18l18-18h-18M4760 40l38-38v18l-18-18h18M4760 40l-38 38V60l18 18h-18M4760 40l38 38V60l-18 18h18"/></g><g stroke="#bdbdbd" stroke-dasharray="115.14865712331314,0.04730236958020077" stroke-dashoffset="115.195959"><path d="M4760 40l-38-38v18l18-18h-18M4760 40l38-38v18l-18-18h18M4760 40l-38 38V60l18 18h-18M4760 40l38 38V60l-18 18h18"/></g></g><g fill="none" stroke-width="2" stroke-linecap="round" stroke-linejoin="round"><path d="M4840 40l-38-38v18l18-18h-18m38 38l38-38v18l-18-18h18m-38 38l-38 38V60l18 18h-18m38-38l38 38V60l-18 18h18" stroke="#ffffff"/><g stroke="#bdbdbd" stroke-dasharray="0,115.19595949289334" stroke-dashoffset="115.195959"><path d="M4840 40l-38-38v18l18-18h-18M4840 40l38-38v18l-18-18h18M4840 40l-38 38V60l18 18h-18M4840 40l38 38V60l-18 18h18"/></g><g stroke="#bdbdbd"><path d="M4840 40l-38-38v18l18-18h-18M4840 40l38-38v18l-18-18h18M4840 40l-38 38V60l18 18h-18M4840 40l38 38V60l-18 18h18"/></g></g></svg>