<svg xmlns="http://www.w3.org/2000/svg" viewBox="0 0 760 40" width="760" height="40"><path d="M7 21l8 8 19-19" fill="none" stroke="#76ff03" stroke-width="4" stroke-dasharray="0,38.18376618407357" stroke-dashoffset="38.183766" stroke-linecap="round" stroke-linejoin="round"/><path d="M47 21l8 8 19-19" fill="none" stroke="#76ff03" stroke-width="4" stroke-dasharray="0.2753114887134526,37.90845469536012" stroke-dashoffset="38.183766" stroke-linecap="round" stroke-linejoin="round"/><path d="M87 21l8 8 19-19" fill="none" stroke="#76ff03" stroke-width="4" stroke-dasharray="1.252455166974339,36.93131101709923" stroke-dashoffset="38.183766" stroke-linecap="round" stroke-linejoin="round"/><path d="M127 21l8 8 19-19" fill="none" stroke="#76ff03" stroke-width="4" stroke-dasharray="3.249647810609353,34.934118373464216" stroke-dashoffset="38.183766" stroke-linecap="round" stroke-linejoin="round"/><path d="M167 21l8 8 19-19" fill="none" stroke="#76ff03" stroke-width="4" stroke-dasharray="6.68858531611524,31.495180867958325" stroke-dashoffset="38.183766" stroke-linecap="round" stroke-linejoin="round"/><path d="M207 21l8 8 19-19" fill="none" stroke="#76ff03" stroke-width="4" stroke-dasharray="11.727772257914564,26.455993926159003" stroke-dashoffset="38.183766" stroke-linecap="round" stroke-linejoin="round"/><path d="M247 21l8 8 19-19" fill="none" stroke="#76ff03" stroke-width="4" stroke-dasharray="17.459593520428264,20.724172663645305" stroke-dashoffset="38.183766" stroke-linecap="round" stroke-linejoin="round"/><path d="M287 21l8 8 19-19" fill="none" stroke="#76ff03" stroke-width="4" stroke-dasharray="22.543290645237096,15.640475538836473" stroke-dashoffset="38.183766" stroke-linecap="round" stroke-linejoin="round"/><path d="M327 21l8 8 19-19" fill="none" stroke="#76ff03" stroke-width="4" stroke-dasharray="26.54668456003695,11.637081624036618" stroke-dashoffset="38.183766" stroke-linecap="round" stroke-linejoin="round"/><path d="M367 21l8 8 19-19" fill="none" stroke="#76ff03" stroke-width="4" stroke-dasharray="29.613851765074433,8.569914418999137" stroke-dashoffset="38.183766" stroke-linecap="round" stroke-linejoin="round"/><path d="M407 21l8 8 19-19" fill="none" stroke="#76ff03" stroke-width="4" stroke-dasharray="31.96483905592082,6.2189271281527505" stroke-dashoffset="38.183766" stroke-linecap="round" stroke-linejoin="round"/><path d="M447 21l8 8 19-19" fill="none" stroke="#76ff03" stroke-width="4" stroke-dasharray="33.772236789935185,4.411529394138384" stroke-dashoffset="38.183766" stroke-linecap="round" stroke-linejoin="round"/><path d="M487 21l8 8 19-19" fill="none" stroke="#76ff03" stroke-width="4" stroke-dasharray="35.158687222423524,3.0250789616500486" stroke-dashoffset="38.183766" stroke-linecap="round" stroke-linejoin="round"/><path d="M527 21l8 8 19-19" fill="none" stroke="#76ff03" stroke-width="4" stroke-dasharray="36.21105216427485,1.9727140197987227" stroke-dashoffset="38.183766" stroke-linecap="round" stroke-linejoin="round"/><path d="M567 21l8 8 19-19" fill="none" stroke="#76ff03" stroke-width="4" stroke-dasharray="36.99210088885211,1.1916652952214648" stroke-dashoffset="38.183766" stroke-linecap="round" stroke-linejoin="round"/><path d="M607 21l8 8 19-19" fill="none" stroke="#76ff03" stroke-width="4" stroke-dasharray="37.54833621908986,0.63542996498371" stroke-dashoffset="38.183766" stroke-linecap="round" stroke-linejoin="round"/><path d="M647 21l8 8 19-19" fill="none" stroke="#76ff03" stroke-width="4" stroke-dasharray="37.915054545266685,0.26871163880688437" stroke-dashoffset="38.183766" stroke-linecap="round" stroke-linejoin="round"/><path d="M687 21l8 8 19-19" fill="none" stroke="#76ff03" stroke-width="4" stroke-dasharray="38.11964211404208,0.0641240700314925" stroke-dashoffset="38.183766" stroke-linecap="round" stroke-linejoin="round"/><path d="M727 21l8 8 19-19" fill="none" stroke="#76ff03" stroke-width="4" stroke-linecap="round" stroke-linejoin="round"/></svg>