<svg xmlns="http://www.w3.org/2000/svg" viewBox="0 0 480 48" width="480" height="48"><g><defs><clipPath id="clip_frame0_rect_move_group"><path d="M0 0h32v48H0z"/></clipPath><clipPath id="clip_frame0_rect"><path d="M0 0h32v48H0z"/></clipPath></defs><path d="M32 12v24h4V12h-4z" fill="#FFFFFF"/><g clip-path="url(#clip_frame0_rect_move_group)"><path d="M12 36l17-12-17-12v24z" fill="#FFFFFF"/></g><path clip-path="url(#clip_frame0_rect)" d="M12 36l17-12-17-12v24z" fill="#FFFFFF"/></g><g transform="translate(48)"><defs><clipPath id="clip_frame1_rect_move_group"><path d="M0 0h32v48H0z"/></clipPath><clipPath id="clip_frame1_rect"><path d="M0 0h32v48H0z"/></clipPath></defs><path d="M32 12v24h4V12h-4z" fill="#FFFFFF"/><g clip-path="url(#clip_frame1_rect_move_group)"><path d="M12.656014 36l17-12-17-12v24z" fill="#FFFFFF"/></g><path clip-path="url(#clip_frame1_rect)" d="M12 36l17-12-17-12v24z" fill="#FFFFFF"/></g><g transform="translate(96)"><defs><clipPath id="clip_frame2_rect_move_group"><path d="M0 0h32v48H0z"/></clipPath><clipPath id="clip_frame2_rect"><path d="M0 0h32v48H0z"/></clipPath></defs><path d="M32 12v24h4V12h-4z" fill="#FFFFFF"/><g clip-path="url(#clip_frame2_rect_move_group)"><path d="M15.503366 36l17-12-17-12v24z" fill="#FFFFFF"/></g><path clip-path="url(#clip_frame2_rect)" d="M12 36l17-12-17-12v24z" fill="#FFFFFF"/></g><g transform="translate(144)"><defs><clipPath id="clip_frame3_rect_move_group"><path d="M0 0h32v48H0z"/></clipPath><clipPath id="clip_frame3_rect"><path d="M0 0h32v48H0z"/></clipPath></defs><path d="M32 12v24h4V12h-4z" fill="#FFFFFF"/><g clip-path="url(#clip_frame3_rect_move_group)"><path d="M21.145035 36l17-12-17-12v24z" fill="#FFFFFF"/></g><path clip-path="url(#clip_frame3_rect)" d="M12 36l17-12-17-12v24z" fill="#FFFFFF"/></g><g transform="translate(192)"><defs><clipPath id="clip_frame4_rect_move_group"><path d="M0 0h32v48H0z"/></clipPath><clipPath id="clip_frame4_rect"><path d="M0 0h32v48H0z"/></clipPath></defs><path d="M32 12v24h4V12h-4z" fill="#FFFFFF"/><g clip-path="url(#clip_frame4_rect_move_group)"><path d="M25.904697 36l17-12-17-12v24z" fill="#FFFFFF"/></g><path clip-path="url(#clip_frame4_rect)" d="M12 36l17-12-17-12v24z" fill="#FFFFFF"/></g><g transform="translate(240)"><defs><clipPath id="clip_frame5_rect_move_group"><path d="M0 0h32v48H0z"/></clipPath><clipPath id="clip_frame5_rect"><path d="M0 0h32v48H0z"/></clipPath></defs><path d="M32 12v24h4V12h-4z" fill="#FFFFFF"/><g clip-path="url(#clip_frame5_rect_move_group)"><path d="M28.742633 36l17-12-17-12v24z" fill="#FFFFFF"/></g><path clip-path="url(#clip_frame5_rect)" d="M12 36l17-12-17-12v24z" fill="#FFFFFF"/></g><g transform="translate(288)"><defs><clipPath id="clip_frame6_rect_move_group"><path d="M0 0h32v48H0z"/></clipPath><clipPath id="clip_frame6_rect"><path d="M0 0h32v48H0z"/></clipPath></defs><path d="M32 12v24h4V12h-4z" fill="#FFFFFF"/><g clip-path="url(#clip_frame6_rect_move_group)"><path d="M30.415516 36l17-12-17-12v24z" fill="#FFFFFF"/></g><path clip-path="url(#clip_frame6_rect)" d="M12 36l17-12-17-12v24z" fill="#FFFFFF"/></g><g transform="translate(336)"><defs><clipPath id="clip_frame7_rect_move_group"><path d="M0 0h32v48H0z"/></clipPath><clipPath id="clip_frame7_rect"><path d="M0 0h32v48H0z"/></clipPath></defs><path d="M32 12v24h4V12h-4z" fill="#FFFFFF"/><g clip-path="url(#clip_frame7_rect_move_group)"><path d="M31.375826 36l17-12-17-12v24z" fill="#FFFFFF"/></g><path clip-path="url(#clip_frame7_rect)" d="M12 36l17-12-17-12v24z" fill="#FFFFFF"/></g><g transform="translate(384)"><defs><clipPath id="clip_frame8_rect_move_group"><path d="M0 0h32v48H0z"/></clipPath><clipPath id="clip_frame8_rect"><path d="M0 0h32v48H0z"/></clipPath></defs><path d="M32 12v24h4V12h-4z" fill="#FFFFFF"/><g clip-path="url(#clip_frame8_rect_move_group)"><path d="M31.859253 36l17-12-17-12v24z" fill="#FFFFFF"/></g><path clip-path="url(#clip_frame8_rect)" d="M12 36l17-12-17-12v24z" fill="#FFFFFF"/></g><g transform="translate(432)"><defs><clipPath id="clip_frame9_rect_move_group"><path d="M0 0h32v48H0z"/></clipPath><clipPath id="clip_frame9_rect"><path d="M0 0h32v48H0z"/></clipPath></defs><path d="M32 12v24h4V12h-4z" fill="#FFFFFF"/><g clip-path="url(#clip_frame9_rect_move_group)"><path d="M32 36l17-12-17-12v24z" fill="#FFFFFF"/></g><path clip-path="url(#clip_frame9_rect)" d="M12 36l17-12-17-12v24z" fill="#FFFFFF"/></g></svg>