<svg xmlns="http://www.w3.org/2000/svg" viewBox="0 0 2440 80" width="2440" height="80"><g fill="none" stroke-width="3" stroke-linecap="round" stroke-linejoin="round"><path d="M20 2v76l18-18H2l18 18" stroke="#BDBDBD"/><path d="M20 2v76l18-18H2l18 18" stroke="#ffffff"/><path d="M20 2v76l18-18H2l18 18" stroke="#ffffff" stroke-dasharray="0,162.91168824543144" stroke-dashoffset="162.911688"/></g><g fill="none" stroke-width="3" stroke-linecap="round" stroke-linejoin="round"><path d="M60 2v76l18-18H42l18 18" stroke="#BDBDBD"/><path d="M60 2v76l18-18H42l18 18" stroke="#ffffff" stroke-dasharray="162.6017241663528,0.30996407907864754" stroke-dashoffset="162.601724"/><path d="M60 2v76l18-18H42l18 18" stroke="#ffffff" stroke-dasharray="0,162.91168824543144" stroke-dashoffset="162.911688"/></g><g fill="none" stroke-width="3" stroke-linecap="round" stroke-linejoin="round"><path d="M100 2v76l18-18H82l18 18" stroke="#BDBDBD"/><path d="M100 2v76l18-18H82l18 18" stroke="#ffffff" stroke-dasharray="161.67419094292006,1.2374973025113718" stroke-dashoffset="161.674191"/><path d="M100 2v76l18-18H82l18 18" stroke="#ffffff" stroke-dasharray="0,162.91168824543144" stroke-dashoffset="162.911688"/></g><g fill="none" stroke-width="3" stroke-linecap="round" stroke-linejoin="round"><path d="M140 2v76l18-18h-36l18 18" stroke="#BDBDBD"/><path d="M140 2v76l18-18h-36l18 18" stroke="#ffffff" stroke-dasharray="160.13614766302345,2.7755405824079804" stroke-dashoffset="160.136148"/><path d="M140 2v76l18-18h-36l18 18" stroke="#ffffff" stroke-dasharray="0,162.91168824543144" stroke-dashoffset="162.911688"/></g><g fill="none" stroke-width="3" stroke-linecap="round" stroke-linejoin="round"><path d="M180 2v76l18-18h-36l18 18" stroke="#BDBDBD"/><path d="M180 2v76l18-18h-36l18 18" stroke="#ffffff" stroke-dasharray="157.9992997647189,4.912388480712549" stroke-dashoffset="157.9993"/><path d="M180 2v76l18-18h-36l18 18" stroke="#ffffff" stroke-dasharray="0,162.91168824543144" stroke-dashoffset="162.911688"/></g><g fill="none" stroke-width="3" stroke-linecap="round" stroke-linejoin="round"><path d="M220 2v76l18-18h-36l18 18" stroke="#BDBDBD"/><path d="M220 2v76l18-18h-36l18 18" stroke="#ffffff" stroke-dasharray="155.27990995077653,7.631778294654919" stroke-dashoffset="155.27991"/><path d="M220 2v76l18-18h-36l18 18" stroke="#ffffff" stroke-dasharray="0,162.91168824543144" stroke-dashoffset="162.911688"/></g><g fill="none" stroke-width="3" stroke-linecap="round" stroke-linejoin="round"><path d="M260 2v76l18-18h-36l18 18" stroke="#BDBDBD"/><path d="M260 2v76l18-18h-36l18 18" stroke="#ffffff" stroke-dasharray="151.9986744196929,10.913013825738549" stroke-dashoffset="151.998674"/><path d="M260 2v76l18-18h-36l18 18" stroke="#ffffff" stroke-dasharray="0,162.91168824543144" stroke-dashoffset="162.911688"/></g><g fill="none" stroke-width="3" stroke-linecap="round" stroke-linejoin="round"><path d="M300 2v76l18-18h-36l18 18" stroke="#BDBDBD"/><path d="M300 2v76l18-18h-36l18 18" stroke="#ffffff" stroke-dasharray="148.18056535512378,14.73112289030767" stroke-dashoffset="148.180565"/><path d="M300 2v76l18-18h-36l18 18" stroke="#ffffff" stroke-dasharray="0,162.91168824543144" stroke-dashoffset="162.911688"/></g><g fill="none" stroke-width="3" stroke-linecap="round" stroke-linejoin="round"><path d="M340 2v76l18-18h-36l18 18" stroke="#BDBDBD"/><path d="M340 2v76l18-18h-36l18 18" stroke="#ffffff" stroke-dasharray="143.85464087248778,19.057047372943668" stroke-dashoffset="143.854641"/><path d="M340 2v76l18-18h-36l18 18" stroke="#ffffff" stroke-dasharray="0,162.91168824543144" stroke-dashoffset="162.911688"/></g><g fill="none" stroke-width="3" stroke-linecap="round" stroke-linejoin="round"><path d="M380 2v76l18-18h-36l18 18" stroke="#BDBDBD"/><path d="M380 2v76l18-18h-36l18 18" stroke="#ffffff" stroke-dasharray="139.0538238691624,23.85786437626904" stroke-dashoffset="139.053824"/><path d="M380 2v76l18-18h-36l18 18" stroke="#ffffff" stroke-dasharray="0,162.91168824543144" stroke-dashoffset="162.911688"/></g><g fill="none" stroke-width="3" stroke-linecap="round" stroke-linejoin="round"><path d="M420 2v76l18-18h-36l18 18" stroke="#BDBDBD"/><path d="M420 2v76l18-18h-36l18 18" stroke="#ffffff" stroke-dasharray="133.8146514613555,29.097036784075925" stroke-dashoffset="133.814651"/><path d="M420 2v76l18-18h-36l18 18" stroke="#ffffff" stroke-dasharray="0,162.91168824543144" stroke-dashoffset="162.911688"/></g><g fill="none" stroke-width="3" stroke-linecap="round" stroke-linejoin="round"><path d="M460 2v76l18-18h-36l18 18" stroke="#BDBDBD"/><path d="M460 2v76l18-18h-36l18 18" stroke="#ffffff" stroke-dasharray="128.17699691458932,34.734691330842104" stroke-dashoffset="128.176997"/><path d="M460 2v76l18-18h-36l18 18" stroke="#ffffff" stroke-dasharray="0,162.91168824543144" stroke-dashoffset="162.911688"/></g><g fill="none" stroke-width="3" stroke-linecap="round" stroke-linejoin="round"><path d="M500 2v76l18-18h-36l18 18" stroke="#BDBDBD"/><path d="M500 2v76l18-18h-36l18 18" stroke="#ffffff" stroke-dasharray="122.18376618407362,40.72792206135782" stroke-dashoffset="122.183766"/><path d="M500 2v76l18-18h-36l18 18" stroke="#ffffff" stroke-dasharray="0,162.91168824543144" stroke-dashoffset="162.911688"/></g><g fill="none" stroke-width="3" stroke-linecap="round" stroke-linejoin="round"><path d="M540 2v76l18-18h-36l18 18" stroke="#BDBDBD"/><path d="M540 2v76l18-18h-36l18 18" stroke="#ffffff" stroke-dasharray="115.88057137447919,47.031116870952246" stroke-dashoffset="115.880571"/><path d="M540 2v76l18-18h-36l18 18" stroke="#ffffff" stroke-dasharray="0,162.91168824543144" stroke-dashoffset="162.911688"/></g><g fill="none" stroke-width="3" stroke-linecap="round" stroke-linejoin="round"><path d="M580 2v76l18-18h-36l18 18" stroke="#BDBDBD"/><path d="M580 2v76l18-18h-36l18 18" stroke="#ffffff" stroke-dasharray="109.31538360428033,53.59630464115111" stroke-dashoffset="109.315384"/><path d="M580 2v76l18-18h-36l18 18" stroke="#ffffff" stroke-dasharray="0,162.91168824543144" stroke-dashoffset="162.911688"/></g><g fill="none" stroke-width="3" stroke-linecap="round" stroke-linejoin="round"><path d="M620 2v76l18-18h-36l18 18" stroke="#BDBDBD"/><path d="M620 2v76l18-18h-36l18 18" stroke="#ffffff" stroke-dasharray="102.53816791657678,60.37352032885466" stroke-dashoffset="102.538168"/><path d="M620 2v76l18-18h-36l18 18" stroke="#ffffff" stroke-dasharray="0,162.91168824543144" stroke-dashoffset="162.911688"/></g><g fill="none" stroke-width="3" stroke-linecap="round" stroke-linejoin="round"><path d="M660 2v76l18-18h-36l18 18" stroke="#BDBDBD"/><path d="M660 2v76l18-18h-36l18 18" stroke="#ffffff" stroke-dasharray="95.60050301494684,67.3111852304846" stroke-dashoffset="95.600503"/><path d="M660 2v76l18-18h-36l18 18" stroke="#ffffff" stroke-dasharray="0,162.91168824543144" stroke-dashoffset="162.911688"/></g><g fill="none" stroke-width="3" stroke-linecap="round" stroke-linejoin="round"><path d="M700 2v76l18-18h-36l18 18" stroke="#BDBDBD"/><path d="M700 2v76l18-18h-36l18 18" stroke="#ffffff" stroke-dasharray="88.55518871836847,74.35649952706297" stroke-dashoffset="88.555189"/><path d="M700 2v76l18-18h-36l18 18" stroke="#ffffff" stroke-dasharray="0,162.91168824543144" stroke-dashoffset="162.911688"/></g><g fill="none" stroke-width="3" stroke-linecap="round" stroke-linejoin="round"><path d="M740 2v76l18-18h-36l18 18" stroke="#BDBDBD"/><path d="M740 2v76l18-18h-36l18 18" stroke="#ffffff" stroke-dasharray="81.45584412271573,81.4558441227157" stroke-dashoffset="81.455844"/><path d="M740 2v76l18-18h-36l18 18" stroke="#ffffff" stroke-dasharray="0,162.91168824543144" stroke-dashoffset="162.911688"/></g><g fill="none" stroke-width="3" stroke-linecap="round" stroke-linejoin="round"><path d="M780 2v76l18-18h-36l18 18" stroke="#BDBDBD"/><path d="M780 2v76l18-18h-36l18 18" stroke="#ffffff" stroke-dasharray="74.35649952706298,88.55518871836846" stroke-dashoffset="74.3565"/><path d="M780 2v76l18-18h-36l18 18" stroke="#ffffff" stroke-dasharray="0,162.91168824543144" stroke-dashoffset="162.911688"/></g><g fill="none" stroke-width="3" stroke-linecap="round" stroke-linejoin="round"><path d="M820 2v76l18-18h-36l18 18" stroke="#BDBDBD"/><path d="M820 2v76l18-18h-36l18 18" stroke="#ffffff" stroke-dasharray="67.31118523048461,95.60050301494682" stroke-dashoffset="67.311185"/><path d="M820 2v76l18-18h-36l18 18" stroke="#ffffff" stroke-dasharray="0,162.91168824543144" stroke-dashoffset="162.911688"/></g><g fill="none" stroke-width="3" stroke-linecap="round" stroke-linejoin="round"><path d="M860 2v76l18-18h-36l18 18" stroke="#BDBDBD"/><path d="M860 2v76l18-18h-36l18 18" stroke="#ffffff" stroke-dasharray="60.373520328854624,102.53816791657681" stroke-dashoffset="60.37352"/><path d="M860 2v76l18-18h-36l18 18" stroke="#ffffff" stroke-dasharray="0,162.91168824543144" stroke-dashoffset="162.911688"/></g><g fill="none" stroke-width="3" stroke-linecap="round" stroke-linejoin="round"><path d="M900 2v76l18-18h-36l18 18" stroke="#BDBDBD"/><path d="M900 2v76l18-18h-36l18 18" stroke="#ffffff" stroke-dasharray="53.59630464115114,109.31538360428029" stroke-dashoffset="53.596305"/><path d="M900 2v76l18-18h-36l18 18" stroke="#ffffff" stroke-dasharray="0,162.91168824543144" stroke-dashoffset="162.911688"/></g><g fill="none" stroke-width="3" stroke-linecap="round" stroke-linejoin="round"><path d="M940 2v76l18-18h-36l18 18" stroke="#BDBDBD"/><path d="M940 2v76l18-18h-36l18 18" stroke="#ffffff" stroke-dasharray="47.03111687095228,115.88057137447915" stroke-dashoffset="47.031117"/><path d="M940 2v76l18-18h-36l18 18" stroke="#ffffff" stroke-dasharray="0,162.91168824543144" stroke-dashoffset="162.911688"/></g><g fill="none" stroke-width="3" stroke-linecap="round" stroke-linejoin="round"><path d="M980 2v76l18-18h-36l18 18" stroke="#BDBDBD"/><path d="M980 2v76l18-18h-36l18 18" stroke="#ffffff" stroke-dasharray="40.727922061357916,122.18376618407352" stroke-dashoffset="40.727922"/><path d="M980 2v76l18-18h-36l18 18" stroke="#ffffff" stroke-dasharray="0,162.91168824543144" stroke-dashoffset="162.911688"/></g><g fill="none" stroke-width="3" stroke-linecap="round" stroke-linejoin="round"><path d="M1020 2v76l18-18h-36l18 18" stroke="#BDBDBD"/><path d="M1020 2v76l18-18h-36l18 18" stroke="#ffffff" stroke-dasharray="34.73469133084214,128.1769969145893" stroke-dashoffset="34.734691"/><path d="M1020 2v76l18-18h-36l18 18" stroke="#ffffff" stroke-dasharray="0.30996407907864754,162.6017241663528" stroke-dashoffset="162.911688"/></g><g fill="none" stroke-width="3" stroke-linecap="round" stroke-linejoin="round"><path d="M1060 2v76l18-18h-36l18 18" stroke="#BDBDBD"/><path d="M1060 2v76l18-18h-36l18 18" stroke="#ffffff" stroke-dasharray="29.097036784075943,133.81465146135548" stroke-dashoffset="29.097037"/><path d="M1060 2v76l18-18h-36l18 18" stroke="#ffffff" stroke-dasharray="1.237497302511381,161.67419094292006" stroke-dashoffset="162.911688"/></g><g fill="none" stroke-width="3" stroke-linecap="round" stroke-linejoin="round"><path d="M1100 2v76l18-18h-36l18 18" stroke="#BDBDBD"/><path d="M1100 2v76l18-18h-36l18 18" stroke="#ffffff" stroke-dasharray="23.857864376269056,139.0538238691624" stroke-dashoffset="23.857864"/><path d="M1100 2v76l18-18h-36l18 18" stroke="#ffffff" stroke-dasharray="2.7755405824079804,160.13614766302345" stroke-dashoffset="162.911688"/></g><g fill="none" stroke-width="3" stroke-linecap="round" stroke-linejoin="round"><path d="M1140 2v76l18-18h-36l18 18" stroke="#BDBDBD"/><path d="M1140 2v76l18-18h-36l18 18" stroke="#ffffff" stroke-dasharray="19.057047372943686,143.85464087248775" stroke-dashoffset="19.057047"/><path d="M1140 2v76l18-18h-36l18 18" stroke="#ffffff" stroke-dasharray="4.912388480712549,157.9992997647189" stroke-dashoffset="162.911688"/></g><g fill="none" stroke-width="3" stroke-linecap="round" stroke-linejoin="round"><path d="M1180 2v76l18-18h-36l18 18" stroke="#BDBDBD"/><path d="M1180 2v76l18-18h-36l18 18" stroke="#ffffff" stroke-dasharray="14.731122890307708,148.18056535512372" stroke-dashoffset="14.731123"/><path d="M1180 2v76l18-18h-36l18 18" stroke="#ffffff" stroke-dasharray="7.631778294654919,155.27990995077653" stroke-dashoffset="162.911688"/></g><g fill="none" stroke-width="3" stroke-linecap="round" stroke-linejoin="round"><path d="M1220 2v76l18-18h-36l18 18" stroke="#BDBDBD"/><path d="M1220 2v76l18-18h-36l18 18" stroke="#ffffff" stroke-dasharray="10.913013825738531,151.99867441969292" stroke-dashoffset="10.913014"/><path d="M1220 2v76l18-18h-36l18 18" stroke="#ffffff" stroke-dasharray="10.913013825738549,151.9986744196929" stroke-dashoffset="162.911688"/></g><g fill="none" stroke-width="3" stroke-linecap="round" stroke-linejoin="round"><path d="M1260 2v76l18-18h-36l18 18" stroke="#BDBDBD"/><path d="M1260 2v76l18-18h-36l18 18" stroke="#ffffff" stroke-dasharray="7.631778294654919,155.27990995077653" stroke-dashoffset="7.631778"/><path d="M1260 2v76l18-18h-36l18 18" stroke="#ffffff" stroke-dasharray="14.731122890307708,148.18056535512372" stroke-dashoffset="162.911688"/></g><g fill="none" stroke-width="3" stroke-linecap="round" stroke-linejoin="round"><path d="M1300 2v76l18-18h-36l18 18" stroke="#BDBDBD"/><path d="M1300 2v76l18-18h-36l18 18" stroke="#ffffff" stroke-dasharray="4.912388480712585,157.99929976471884" stroke-dashoffset="4.912388"/><path d="M1300 2v76l18-18h-36l18 18" stroke="#ffffff" stroke-dasharray="19.057047372943668,143.85464087248778" stroke-dashoffset="162.911688"/></g><g fill="none" stroke-width="3" stroke-linecap="round" stroke-linejoin="round"><path d="M1340 2v76l18-18h-36l18 18" stroke="#BDBDBD"/><path d="M1340 2v76l18-18h-36l18 18" stroke="#ffffff" stroke-dasharray="2.775540582407998,160.13614766302345" stroke-dashoffset="2.775541"/><path d="M1340 2v76l18-18h-36l18 18" stroke="#ffffff" stroke-dasharray="23.85786437626904,139.0538238691624" stroke-dashoffset="162.911688"/></g><g fill="none" stroke-width="3" stroke-linecap="round" stroke-linejoin="round"><path d="M1380 2v76l18-18h-36l18 18" stroke="#BDBDBD"/><path d="M1380 2v76l18-18h-36l18 18" stroke="#ffffff" stroke-dasharray="1.2374973025113718,161.67419094292006" stroke-dashoffset="1.237497"/><path d="M1380 2v76l18-18h-36l18 18" stroke="#ffffff" stroke-dasharray="29.097036784075925,133.8146514613555" stroke-dashoffset="162.911688"/></g><g fill="none" stroke-width="3" stroke-linecap="round" stroke-linejoin="round"><path d="M1420 2v76l18-18h-36l18 18" stroke="#BDBDBD"/><path d="M1420 2v76l18-18h-36l18 18" stroke="#ffffff" stroke-dasharray="0.30996407907864754,162.6017241663528" stroke-dashoffset=".309964"/><path d="M1420 2v76l18-18h-36l18 18" stroke="#ffffff" stroke-dasharray="34.73469133084211,128.17699691458932" stroke-dashoffset="162.911688"/></g><g fill="none" stroke-width="3" stroke-linecap="round" stroke-linejoin="round"><path d="M1460 2v76l18-18h-36l18 18" stroke="#BDBDBD"/><path d="M1460 2v76l18-18h-36l18 18" stroke="#ffffff" stroke-dasharray="0,162.91168824543144" stroke-dashoffset="162.911688"/><path d="M1460 2v76l18-18h-36l18 18" stroke="#ffffff" stroke-dasharray="40.72792206135782,122.18376618407362" stroke-dashoffset="162.911688"/></g><g fill="none" stroke-width="3" stroke-linecap="round" stroke-linejoin="round"><path d="M1500 2v76l18-18h-36l18 18" stroke="#BDBDBD"/><path d="M1500 2v76l18-18h-36l18 18" stroke="#ffffff" stroke-dasharray="0,162.91168824543144" stroke-dashoffset="162.911688"/><path d="M1500 2v76l18-18h-36l18 18" stroke="#ffffff" stroke-dasharray="47.03111687095225,115.88057137447919" stroke-dashoffset="162.911688"/></g><g fill="none" stroke-width="3" stroke-linecap="round" stroke-linejoin="round"><path d="M1540 2v76l18-18h-36l18 18" stroke="#BDBDBD"/><path d="M1540 2v76l18-18h-36l18 18" stroke="#ffffff" stroke-dasharray="0,162.91168824543144" stroke-dashoffset="162.911688"/><path d="M1540 2v76l18-18h-36l18 18" stroke="#ffffff" stroke-dasharray="53.59630464115111,109.31538360428033" stroke-dashoffset="162.911688"/></g><g fill="none" stroke-width="3" stroke-linecap="round" stroke-linejoin="round"><path d="M1580 2v76l18-18h-36l18 18" stroke="#BDBDBD"/><path d="M1580 2v76l18-18h-36l18 18" stroke="#ffffff" stroke-dasharray="0,162.91168824543144" stroke-dashoffset="162.911688"/><path d="M1580 2v76l18-18h-36l18 18" stroke="#ffffff" stroke-dasharray="60.37352032885467,102.53816791657678" stroke-dashoffset="162.911688"/></g><g fill="none" stroke-width="3" stroke-linecap="round" stroke-linejoin="round"><path d="M1620 2v76l18-18h-36l18 18" stroke="#BDBDBD"/><path d="M1620 2v76l18-18h-36l18 18" stroke="#ffffff" stroke-dasharray="0,162.91168824543144" stroke-dashoffset="162.911688"/><path d="M1620 2v76l18-18h-36l18 18" stroke="#ffffff" stroke-dasharray="67.3111852304846,95.60050301494684" stroke-dashoffset="162.911688"/></g><g fill="none" stroke-width="3" stroke-linecap="round" stroke-linejoin="round"><path d="M1660 2v76l18-18h-36l18 18" stroke="#BDBDBD"/><path d="M1660 2v76l18-18h-36l18 18" stroke="#ffffff" stroke-dasharray="0,162.91168824543144" stroke-dashoffset="162.911688"/><path d="M1660 2v76l18-18h-36l18 18" stroke="#ffffff" stroke-dasharray="74.35649952706295,88.55518871836847" stroke-dashoffset="162.911688"/></g><g fill="none" stroke-width="3" stroke-linecap="round" stroke-linejoin="round"><path d="M1700 2v76l18-18h-36l18 18" stroke="#BDBDBD"/><path d="M1700 2v76l18-18h-36l18 18" stroke="#ffffff" stroke-dasharray="0,162.91168824543144" stroke-dashoffset="162.911688"/><path d="M1700 2v76l18-18h-36l18 18" stroke="#ffffff" stroke-dasharray="81.4558441227157,81.45584412271573" stroke-dashoffset="162.911688"/></g><g fill="none" stroke-width="3" stroke-linecap="round" stroke-linejoin="round"><path d="M1740 2v76l18-18h-36l18 18" stroke="#BDBDBD"/><path d="M1740 2v76l18-18h-36l18 18" stroke="#ffffff" stroke-dasharray="0,162.91168824543144" stroke-dashoffset="162.911688"/><path d="M1740 2v76l18-18h-36l18 18" stroke="#ffffff" stroke-dasharray="88.55518871836846,74.35649952706298" stroke-dashoffset="162.911688"/></g><g fill="none" stroke-width="3" stroke-linecap="round" stroke-linejoin="round"><path d="M1780 2v76l18-18h-36l18 18" stroke="#BDBDBD"/><path d="M1780 2v76l18-18h-36l18 18" stroke="#ffffff" stroke-dasharray="0,162.91168824543144" stroke-dashoffset="162.911688"/><path d="M1780 2v76l18-18h-36l18 18" stroke="#ffffff" stroke-dasharray="95.60050301494682,67.31118523048461" stroke-dashoffset="162.911688"/></g><g fill="none" stroke-width="3" stroke-linecap="round" stroke-linejoin="round"><path d="M1820 2v76l18-18h-36l18 18" stroke="#BDBDBD"/><path d="M1820 2v76l18-18h-36l18 18" stroke="#ffffff" stroke-dasharray="0,162.91168824543144" stroke-dashoffset="162.911688"/><path d="M1820 2v76l18-18h-36l18 18" stroke="#ffffff" stroke-dasharray="102.53816791657681,60.373520328854624" stroke-dashoffset="162.911688"/></g><g fill="none" stroke-width="3" stroke-linecap="round" stroke-linejoin="round"><path d="M1860 2v76l18-18h-36l18 18" stroke="#BDBDBD"/><path d="M1860 2v76l18-18h-36l18 18" stroke="#ffffff" stroke-dasharray="0,162.91168824543144" stroke-dashoffset="162.911688"/><path d="M1860 2v76l18-18h-36l18 18" stroke="#ffffff" stroke-dasharray="109.31538360428029,53.59630464115114" stroke-dashoffset="162.911688"/></g><g fill="none" stroke-width="3" stroke-linecap="round" stroke-linejoin="round"><path d="M1900 2v76l18-18h-36l18 18" stroke="#BDBDBD"/><path d="M1900 2v76l18-18h-36l18 18" stroke="#ffffff" stroke-dasharray="0,162.91168824543144" stroke-dashoffset="162.911688"/><path d="M1900 2v76l18-18h-36l18 18" stroke="#ffffff" stroke-dasharray="115.88057137447915,47.03111687095228" stroke-dashoffset="162.911688"/></g><g fill="none" stroke-width="3" stroke-linecap="round" stroke-linejoin="round"><path d="M1940 2v76l18-18h-36l18 18" stroke="#BDBDBD"/><path d="M1940 2v76l18-18h-36l18 18" stroke="#ffffff" stroke-dasharray="0,162.91168824543144" stroke-dashoffset="162.911688"/><path d="M1940 2v76l18-18h-36l18 18" stroke="#ffffff" stroke-dasharray="122.18376618407352,40.727922061357916" stroke-dashoffset="162.911688"/></g><g fill="none" stroke-width="3" stroke-linecap="round" stroke-linejoin="round"><path d="M1980 2v76l18-18h-36l18 18" stroke="#BDBDBD"/><path d="M1980 2v76l18-18h-36l18 18" stroke="#ffffff" stroke-dasharray="0,162.91168824543144" stroke-dashoffset="162.911688"/><path d="M1980 2v76l18-18h-36l18 18" stroke="#ffffff" stroke-dasharray="128.1769969145893,34.73469133084214" stroke-dashoffset="162.911688"/></g><g fill="none" stroke-width="3" stroke-linecap="round" stroke-linejoin="round"><path d="M2020 2v76l18-18h-36l18 18" stroke="#BDBDBD"/><path d="M2020 2v76l18-18h-36l18 18" stroke="#ffffff" stroke-dasharray="0,162.91168824543144" stroke-dashoffset="162.911688"/><path d="M2020 2v76l18-18h-36l18 18" stroke="#ffffff" stroke-dasharray="133.81465146135548,29.097036784075943" stroke-dashoffset="162.911688"/></g><g fill="none" stroke-width="3" stroke-linecap="round" stroke-linejoin="round"><path d="M2060 2v76l18-18h-36l18 18" stroke="#BDBDBD"/><path d="M2060 2v76l18-18h-36l18 18" stroke="#ffffff" stroke-dasharray="0,162.91168824543144" stroke-dashoffset="162.911688"/><path d="M2060 2v76l18-18h-36l18 18" stroke="#ffffff" stroke-dasharray="139.0538238691624,23.857864376269056" stroke-dashoffset="162.911688"/></g><g fill="none" stroke-width="3" stroke-linecap="round" stroke-linejoin="round"><path d="M2100 2v76l18-18h-36l18 18" stroke="#BDBDBD"/><path d="M2100 2v76l18-18h-36l18 18" stroke="#ffffff" stroke-dasharray="0,162.91168824543144" stroke-dashoffset="162.911688"/><path d="M2100 2v76l18-18h-36l18 18" stroke="#ffffff" stroke-dasharray="143.85464087248778,19.05704737294365" stroke-dashoffset="162.911688"/></g><g fill="none" stroke-width="3" stroke-linecap="round" stroke-linejoin="round"><path d="M2140 2v76l18-18h-36l18 18" stroke="#BDBDBD"/><path d="M2140 2v76l18-18h-36l18 18" stroke="#ffffff" stroke-dasharray="0,162.91168824543144" stroke-dashoffset="162.911688"/><path d="M2140 2v76l18-18h-36l18 18" stroke="#ffffff" stroke-dasharray="148.18056535512372,14.731122890307708" stroke-dashoffset="162.911688"/></g><g fill="none" stroke-width="3" stroke-linecap="round" stroke-linejoin="round"><path d="M2180 2v76l18-18h-36l18 18" stroke="#BDBDBD"/><path d="M2180 2v76l18-18h-36l18 18" stroke="#ffffff" stroke-dasharray="0,162.91168824543144" stroke-dashoffset="162.911688"/><path d="M2180 2v76l18-18h-36l18 18" stroke="#ffffff" stroke-dasharray="151.99867441969292,10.913013825738531" stroke-dashoffset="162.911688"/></g><g fill="none" stroke-width="3" stroke-linecap="round" stroke-linejoin="round"><path d="M2220 2v76l18-18h-36l18 18" stroke="#BDBDBD"/><path d="M2220 2v76l18-18h-36l18 18" stroke="#ffffff" stroke-dasharray="0,162.91168824543144" stroke-dashoffset="162.911688"/><path d="M2220 2v76l18-18h-36l18 18" stroke="#ffffff" stroke-dasharray="155.27990995077653,7.631778294654919" stroke-dashoffset="162.911688"/></g><g fill="none" stroke-width="3" stroke-linecap="round" stroke-linejoin="round"><path d="M2260 2v76l18-18h-36l18 18" stroke="#BDBDBD"/><path d="M2260 2v76l18-18h-36l18 18" stroke="#ffffff" stroke-dasharray="0,162.91168824543144" stroke-dashoffset="162.911688"/><path d="M2260 2v76l18-18h-36l18 18" stroke="#ffffff" stroke-dasharray="157.99929976471884,4.912388480712585" stroke-dashoffset="162.911688"/></g><g fill="none" stroke-width="3" stroke-linecap="round" stroke-linejoin="round"><path d="M2300 2v76l18-18h-36l18 18" stroke="#BDBDBD"/><path d="M2300 2v76l18-18h-36l18 18" stroke="#ffffff" stroke-dasharray="0,162.91168824543144" stroke-dashoffset="162.911688"/><path d="M2300 2v76l18-18h-36l18 18" stroke="#ffffff" stroke-dasharray="160.13614766302345,2.775540582407998" stroke-dashoffset="162.911688"/></g><g fill="none" stroke-width="3" stroke-linecap="round" stroke-linejoin="round"><path d="M2340 2v76l18-18h-36l18 18" stroke="#BDBDBD"/><path d="M2340 2v76l18-18h-36l18 18" stroke="#ffffff" stroke-dasharray="0,162.91168824543144" stroke-dashoffset="162.911688"/><path d="M2340 2v76l18-18h-36l18 18" stroke="#ffffff" stroke-dasharray="161.67419094292006,1.2374973025113718" stroke-dashoffset="162.911688"/></g><g fill="none" stroke-width="3" stroke-linecap="round" stroke-linejoin="round"><path d="M2380 2v76l18-18h-36l18 18" stroke="#BDBDBD"/><path d="M2380 2v76l18-18h-36l18 18" stroke="#ffffff" stroke-dasharray="0,162.91168824543144" stroke-dashoffset="162.911688"/><path d="M2380 2v76l18-18h-36l18 18" stroke="#ffffff" stroke-dasharray="162.60172416635277,0.30996407907866563" stroke-dashoffset="162.911688"/></g><g fill="none" stroke-width="3" stroke-linecap="round" stroke-linejoin="round"><path d="M2420 2v76l18-18h-36l18 18" stroke="#BDBDBD"/><path d="M2420 2v76l18-18h-36l18 18" stroke="#ffffff" stroke-dasharray="0,162.91168824543144" stroke-dashoffset="162.911688"/><path d="M2420 2v76l18-18h-36l18 18" stroke="#ffffff"/></g></svg>