<svg xmlns="http://www.w3.org/2000/svg" viewBox="0 0 912 48" width="912" height="48"><path d="M16 10v14h22L16 10m0 14v14l22-14H16M64.115914 9.923806l-.15807 13.956105 22.041587.249647.000656-.057996L64.115914 9.923806m-.158727 14.014101l-.15807 13.956105 22.199-13.648461.000657-.057996-22.041587-.249648M112.531485 9.662342l-.71086 13.784683 22.167543 1.143155.013545-.26265-21.470228-14.665188m-.724354 14.046335l-.71086 13.784683 22.86486-12.378876.013544-.262651-22.167544-1.143156M161.408277 9.159002l-1.798022 13.369638 22.31015 3.000391.090767-.674924-20.602895-15.695105m-1.888656 14.043571l-1.798022 13.369638 24.017404-9.694323.090767-.674924-22.31015-3.00039M210.998103 8.404356l-3.518177 12.461903 22.1839 6.262838.380645-1.348299-19.046368-17.376442m-3.899094 13.811164l-3.518177 12.461904 25.321434-4.850766.380644-1.348299-22.1839-6.262839M261.490997 7.575185l-5.640303 10.769384 21.121528 11.062083 1.139938-2.176554-16.621163-19.654913m-6.780705 12.946824l-5.640303 10.769384 25.621894 2.469255 1.139937-2.176555-21.121528-11.062084M312.521023 7.077255l-7.407208 8.475306 18.631215 16.283222 2.407211-2.754323-13.631218-22.004205m-9.81442 11.22963l-7.407207 8.475305 23.631213 10.56224 2.40721-2.754323-18.631215-16.283223M363.33146 7.075287l-8.366141 6.273479 15.323437 20.434922 3.778644-2.833474-10.73594-23.874927m-12.145586 9.107553l-8.36614 6.273478 19.910933 16.994918 3.778644-2.833474-15.323437-20.434922M413.585893 7.388463l-8.724058 4.5277 12.055592 23.228946 4.93674-2.562119-8.268274-25.194527m-13.660797 7.089818l-8.724058 4.5277 15.842911 21.263365 4.93674-2.562119-12.055593-23.228946M463.314388 7.826697l-8.772124 3.227423 9.203007 25.013737 5.823369-2.142522-6.254252-26.098638m-14.594554 5.3696l-8.772123 3.227423 12.151761 23.928837 5.823369-2.142522-9.203007-25.013738M512.629335 8.28175l-8.684824 2.271643 6.838208 26.143478 6.479032-1.694686-4.632416-26.720435m-15.164823 3.96658l-8.684824 2.271643 9.044 25.566521 6.479032-1.694685-6.838208-26.143478M561.628408 8.704008l-8.55024 1.568966 4.928535 26.858552 6.959794-1.27712-3.338089-27.150398m-15.510034 2.846086l-8.55024 1.568965 6.51898 26.566706 6.959794-1.27712-4.928534-26.858551M610.3852 9.070492l-8.40946 1.051952 3.416516 27.31214 7.309037-.914298-2.316094-27.449794m-15.718496 1.96625l-8.40946 1.051952 4.51694 27.174487 7.309037-.914298-3.416517-27.31214M658.9534 9.373937l-8.28265.673642 2.244664 27.59887 7.56203-.615034-1.524043-27.657478m-15.843685 1.288594l-8.28265.673643 2.965284 27.54026 7.56203-.615033-2.244664-27.59887M707.370633 9.612522l-8.177165.401186 1.362917 27.779587 7.74069-.379772-.926442-27.801001m-15.917854.780959l-8.177165.401186 1.799392 27.758172 7.74069-.379772-1.362917-27.779586M755.665582 9.79024l-8.097233.211711.729228 27.890468 7.864313-.205621-.496308-27.896558m-15.960546.417306l-8.097232.211712.962148 27.884378 7.864313-.205621-.729229-27.890469M803.858975 9.91005l-8.04151.088896.309048 27.956292 7.943515-.087813-.211053-27.957375m-15.985024.17671l-8.041508.088895.40704 27.955209 7.943515-.087813-.309047-27.956292M851.966054 9.978386l-8.009972.02113.073835 27.989902 7.986972-.021069-.050835-27.989963m-15.995945.042196l-8.009972.02113.096836 27.989842 7.986972-.02107-.073836-27.989902M900 10h-8v28h8V10m-16 0h-8v28h8V10" fill="#FFFFFF"/></svg>