<svg xmlns="http://www.w3.org/2000/svg" viewBox="0 0 912 48" width="912" height="48"><path d="M12 10h8v28h-8zm16 0h8v28h-8zM60.24632 9.865978l7.941491.089946-.316626 27.955207-8.042484-.09109zm15.882982.179893l7.94149.089947-.215632 27.956351-8.042484-.09109zM109.130408 9.420864l7.726733.39846-1.431868 27.766104-8.186122-.42215zm15.454464.79697l7.726733.398459-.972478 27.789795-8.186122-.42215zM158.984956 8.66157l7.253697.975517-3.663886 27.243735-8.434071-1.13426zm14.508386 1.951168l7.253698.975517-2.483513 27.402477-8.434072-1.13426zM210.278057 7.837396l6.350768 1.792914-7.321905 25.935272-8.710532-2.45911zm12.700574 3.585557l6.350769 1.792915-4.962141 26.601467-8.710533-2.45911zM263.130344 7.740655l4.910314 2.571704-12.135676 23.171405-8.719506-4.56671zm9.819743 5.142943l4.910315 2.571704-8.326484 25.166413-8.719507-4.566711zM316.308924 9.172581l3.269347 2.85733-16.620153 19.01673-8.08979-7.070277zm6.538695 5.714659l3.269348 2.857329-11.79971 23.229679-8.089791-7.070278zM368.252064 11.668712l1.965974 2.62177-19.567666 14.673111-6.925004-9.234997zm3.931348 5.24274l1.965973 2.621769-14.608636 21.28634-6.925003-9.234998zM418.741582 14.30505l1.123057 2.163928-21.150225 10.976757-5.606535-10.802778zm2.246115 4.327856l1.123057 2.163929-16.666748 19.615606-5.606535-10.802778zM468.20908 16.638574l.619796 1.6846-21.91107 8.06148-4.36895-11.874792zm1.239936 3.37014l.619795 1.6846-18.161914 18.25167-4.36895-11.874792zM517.049877 18.566878l.329726 1.26059-22.229164 5.814363-3.295488-12.599139zm.6592 2.520214l.329725 1.260591-19.263401 17.15291-3.295489-12.599139zM565.519932 20.109956l.166769.908826-22.320325 4.09577-2.401729-13.088466zm.333538 1.817652l.16677.908825-20.085367 16.275412-2.401728-13.088467zM613.773692 21.318616l.078694.629097-22.301194 2.78969-1.678779-13.420406zm.15739 1.258194l.078694.629097-20.70111 15.581-1.678779-13.420406zM661.903665 22.247143l.03348.411641-22.236576 1.80854-1.109767-13.644945zm.06704.824279l.03348.41164-21.160288 15.041844-1.109768-13.644945zM709.964805 22.93941l.01225.2497-22.160345 1.087227-.676876-13.796406zm.024501.4994l.012251.2497-21.49572 14.633932-.676876-13.796406zM757.98999 23.434147l.003476.132955-22.09245.577632-.363307-13.89525zm.006978.26691l.003477.132954-21.73262 14.339929-.363307-13.895251zM805.998216 23.76125l.00062.055996-22.040654.243652-.154292-13.957147zm.001238.111993l.00062.055996-21.886982 14.144803-.154291-13.957148zM853.999899 23.94307l.000034.013-22.009924.05806-.036904-13.989952zm.00007.027l.000035.012999-21.973053 14.035012-.036905-13.989951zM902 24h-22V10zm0 0l-22 14V24z" fill="#FFFFFF"/></svg>