<svg xmlns="http://www.w3.org/2000/svg" viewBox="0 0 912 48" width="912" height="48"><g><defs><clipPath id="clip_frame0_rect_move_group"><path d="M16 0h32v48H16z"/></clipPath></defs><path d="M12 12h4v24h-4zM19 24l17 12V12z" fill="#FFFFFF"/><g clip-path="url(#clip_frame0_rect_move_group)"><path d="M19 24l17 12V12z" fill="#FFFFFF"/></g></g><g transform="translate(48)"><defs><clipPath id="clip_frame1_rect_move_group"><path d="M16 0h32v48H16z"/></clipPath></defs><path d="M12 12h4v24h-4zM19 24l17 12V12z" fill="#FFFFFF"/><g clip-path="url(#clip_frame1_rect_move_group)"><path d="M18.855797 24l17 12V12z" fill="#FFFFFF"/></g></g><g transform="translate(96)"><defs><clipPath id="clip_frame2_rect_move_group"><path d="M16 0h32v48H16z"/></clipPath></defs><path d="M12 12h4v24h-4zM19 24l17 12V12z" fill="#FFFFFF"/><g clip-path="url(#clip_frame2_rect_move_group)"><path d="M18.343986 24l17 12V12z" fill="#FFFFFF"/></g></g><g transform="translate(144)"><defs><clipPath id="clip_frame3_rect_move_group"><path d="M16 0h32v48H16z"/></clipPath></defs><path d="M12 12h4v24h-4zM19 24l17 12V12z" fill="#FFFFFF"/><g clip-path="url(#clip_frame3_rect_move_group)"><path d="M17.29789 24l17 12V12z" fill="#FFFFFF"/></g></g><g transform="translate(192)"><defs><clipPath id="clip_frame4_rect_move_group"><path d="M16 0h32v48H16z"/></clipPath></defs><path d="M12 12h4v24h-4zM19 24l17 12V12z" fill="#FFFFFF"/><g clip-path="url(#clip_frame4_rect_move_group)"><path d="M15.496634 24l17 12V12z" fill="#FFFFFF"/></g></g><g transform="translate(240)"><defs><clipPath id="clip_frame5_rect_move_group"><path d="M16 0h32v48H16z"/></clipPath></defs><path d="M12 12h4v24h-4zM19 24l17 12V12z" fill="#FFFFFF"/><g clip-path="url(#clip_frame5_rect_move_group)"><path d="M12.857195 24l17 12V12z" fill="#FFFFFF"/></g></g><g transform="translate(288)"><defs><clipPath id="clip_frame6_rect_move_group"><path d="M16 0h32v48H16z"/></clipPath></defs><path d="M12 12h4v24h-4zM19 24l17 12V12z" fill="#FFFFFF"/><g clip-path="url(#clip_frame6_rect_move_group)"><path d="M9.854965 24l17 12V12z" fill="#FFFFFF"/></g></g><g transform="translate(336)"><defs><clipPath id="clip_frame7_rect_move_group"><path d="M16 0h32v48H16z"/></clipPath></defs><path d="M12 12h4v24h-4zM19 24l17 12V12z" fill="#FFFFFF"/><g clip-path="url(#clip_frame7_rect_move_group)"><path d="M7.192212 24l17 12V12z" fill="#FFFFFF"/></g></g><g transform="translate(384)"><defs><clipPath id="clip_frame8_rect_move_group"><path d="M16 0h32v48H16z"/></clipPath></defs><path d="M12 12h4v24h-4zM19 24l17 12V12z" fill="#FFFFFF"/><g clip-path="url(#clip_frame8_rect_move_group)"><path d="M5.095303 24l17 12V12z" fill="#FFFFFF"/></g></g><g transform="translate(432)"><defs><clipPath id="clip_frame9_rect_move_group"><path d="M16 0h32v48H16z"/></clipPath></defs><path d="M12 12h4v24h-4zM19 24l17 12V12z" fill="#FFFFFF"/><g clip-path="url(#clip_frame9_rect_move_group)"><path d="M3.488774 24l17 12V12z" fill="#FFFFFF"/></g></g><g transform="translate(480)"><defs><clipPath id="clip_frame10_rect_move_group"><path d="M16 0h32v48H16z"/></clipPath></defs><path d="M12 12h4v24h-4zM19 24l17 12V12z" fill="#FFFFFF"/><g clip-path="url(#clip_frame10_rect_move_group)"><path d="M2.257367 24l17 12V12z" fill="#FFFFFF"/></g></g><g transform="translate(528)"><defs><clipPath id="clip_frame11_rect_move_group"><path d="M16 0h32v48H16z"/></clipPath></defs><path d="M12 12h4v24h-4zM19 24l17 12V12z" fill="#FFFFFF"/><g clip-path="url(#clip_frame11_rect_move_group)"><path d="M1.310683 24l17 12V12z" fill="#FFFFFF"/></g></g><g transform="translate(576)"><defs><clipPath id="clip_frame12_rect_move_group"><path d="M16 0h32v48H16z"/></clipPath></defs><path d="M12 12h4v24h-4zM19 24l17 12V12z" fill="#FFFFFF"/><g clip-path="url(#clip_frame12_rect_move_group)"><path d="M.584484 24l17 12V12z" fill="#FFFFFF"/></g></g><g transform="translate(624)"><defs><clipPath id="clip_frame13_rect_move_group"><path d="M16 0h32v48H16z"/></clipPath></defs><path d="M12 12h4v24h-4zM19 24l17 12V12z" fill="#FFFFFF"/><g clip-path="url(#clip_frame13_rect_move_group)"><path d="M.033274 24l17 12V12z" fill="#FFFFFF"/></g></g><g transform="translate(672)"><defs><clipPath id="clip_frame14_rect_move_group"><path d="M16 0h32v48H16z"/></clipPath></defs><path d="M12 12h4v24h-4zM19 24l17 12V12z" fill="#FFFFFF"/><g clip-path="url(#clip_frame14_rect_move_group)"><path d="M-.375826 24l17 12V12z" fill="#FFFFFF"/></g></g><g transform="translate(720)"><defs><clipPath id="clip_frame15_rect_move_group"><path d="M16 0h32v48H16z"/></clipPath></defs><path d="M12 12h4v24h-4zM19 24l17 12V12z" fill="#FFFFFF"/><g clip-path="url(#clip_frame15_rect_move_group)"><path d="M-.667173 24l17 12V12z" fill="#FFFFFF"/></g></g><g transform="translate(768)"><defs><clipPath id="clip_frame16_rect_move_group"><path d="M16 0h32v48H16z"/></clipPath></defs><path d="M12 12h4v24h-4zM19 24l17 12V12z" fill="#FFFFFF"/><g clip-path="url(#clip_frame16_rect_move_group)"><path d="M-.859253 24l17 12V12z" fill="#FFFFFF"/></g></g><g transform="translate(816)"><defs><clipPath id="clip_frame17_rect_move_group"><path d="M16 0h32v48H16z"/></clipPath></defs><path d="M12 12h4v24h-4zM19 24l17 12V12z" fill="#FFFFFF"/><g clip-path="url(#clip_frame17_rect_move_group)"><path d="M-.966413 24l17 12V12z" fill="#FFFFFF"/></g></g><g transform="translate(864)"><defs><clipPath id="clip_frame18_rect_move_group"><path d="M16 0h32v48H16z"/></clipPath></defs><path d="M12 12h4v24h-4zM19 24l17 12V12z" fill="#FFFFFF"/><g clip-path="url(#clip_frame18_rect_move_group)"><path d="M-1 24l17 12V12z" fill="#FFFFFF"/></g></g></svg>