<svg xmlns="http://www.w3.org/2000/svg" viewBox="0 0 7320 80" width="7320" height="80"><g fill="none" stroke-width="3" stroke-linecap="round" stroke-linejoin="round"><path d="M60 2v22H20v54l18-18H2l18 18M60 2v22h40v54l18-18H82l18 18" stroke="#BDBDBD" stroke-miterlimit="3"/><g stroke="#ffffff" stroke-miterlimit="3"><path d="M60 2v22H20v54l18-18H2l18 18M60 2v22h40v54l18-18H82l18 18"/></g><g stroke="#ffffff" stroke-dasharray="0,202.91168824543144" stroke-dashoffset="202.911688"><path d="M60 2v22H20v54l18-18H2l18 18M60 2v22h40v54l18-18H82l18 18"/></g></g><g fill="none" stroke-width="3" stroke-linecap="round" stroke-linejoin="round"><path d="M180 2v22h-40v54l18-18h-36l18 18m40-76v22h40v54l18-18h-36l18 18" stroke="#BDBDBD" stroke-miterlimit="3"/><g stroke="#ffffff" stroke-miterlimit="3"><path d="M180 2v22h-40v54l18-18h-36l18 18" stroke-dasharray="202.77043507483336,0.14125317059806328" stroke-dashoffset="202.770435"/><path d="M180 2v22h40v54l18-18h-36l18 18" stroke-dasharray="202.56685955054337,0.3448286948880602" stroke-dashoffset="202.56686"/></g><g stroke="#ffffff" stroke-dasharray="0,202.91168824543144" stroke-dashoffset="202.911688"><path d="M180 2v22h-40v54l18-18h-36l18 18M180 2v22h40v54l18-18h-36l18 18"/></g></g><g fill="none" stroke-width="3" stroke-linecap="round" stroke-linejoin="round"><path d="M300 2v22h-40v54l18-18h-36l18 18m40-76v22h40v54l18-18h-36l18 18" stroke="#BDBDBD" stroke-miterlimit="3"/><g stroke="#ffffff" stroke-miterlimit="3"><path d="M300 2v22h-40v54l18-18h-36l18 18" stroke-dasharray="201.9284657417015,0.983222503729922" stroke-dashoffset="201.928466"/><path d="M300 2v22h40v54l18-18h-36l18 18" stroke-dasharray="201.44866024816935,1.4630279972620972" stroke-dashoffset="201.44866"/></g><g stroke="#ffffff" stroke-dasharray="0,202.91168824543144" stroke-dashoffset="202.911688"><path d="M300 2v22h-40v54l18-18h-36l18 18M300 2v22h40v54l18-18h-36l18 18"/></g></g><g fill="none" stroke-width="3" stroke-linecap="round" stroke-linejoin="round"><path d="M420 2v22h-40v54l18-18h-36l18 18m40-76v22h40v54l18-18h-36l18 18" stroke="#BDBDBD" stroke-miterlimit="3"/><g stroke="#ffffff" stroke-miterlimit="3"><path d="M420 2v22h-40v54l18-18h-36l18 18" stroke-dasharray="200.20121929609067,2.710468949340751" stroke-dashoffset="200.201219"/><path d="M420 2v22h40v54l18-18h-36l18 18" stroke-dasharray="199.40762522681783,3.5040630186136124" stroke-dashoffset="199.407625"/></g><g stroke="#ffffff" stroke-dasharray="0,202.91168824543144" stroke-dashoffset="202.911688"><path d="M420 2v22h-40v54l18-18h-36l18 18M420 2v22h40v54l18-18h-36l18 18"/></g></g><g fill="none" stroke-width="3" stroke-linecap="round" stroke-linejoin="round"><path d="M540 2v22h-40v54l18-18h-36l18 18m40-76v22h40v54l18-18h-36l18 18" stroke="#BDBDBD" stroke-miterlimit="3"/><g stroke="#ffffff" stroke-miterlimit="3"><path d="M540 2v22h-40v54l18-18h-36l18 18" stroke-dasharray="197.40947806122037,5.50221018421106" stroke-dashoffset="197.409478"/><path d="M540 2v22h40v54l18-18h-36l18 18" stroke-dasharray="196.25603801026742,6.655650235164011" stroke-dashoffset="196.256038"/></g><g stroke="#ffffff" stroke-dasharray="0,202.91168824543144" stroke-dashoffset="202.911688"><path d="M540 2v22h-40v54l18-18h-36l18 18M540 2v22h40v54l18-18h-36l18 18"/></g></g><g fill="none" stroke-width="3" stroke-linecap="round" stroke-linejoin="round"><path d="M660 2v22h-40v54l18-18h-36l18 18m40-76v22h40v54l18-18h-36l18 18" stroke="#BDBDBD" stroke-miterlimit="3"/><g stroke="#ffffff" stroke-miterlimit="3"><path d="M660 2v22h-40v54l18-18h-36l18 18" stroke-dasharray="193.32894606364817,9.582742181783246" stroke-dashoffset="193.328946"/><path d="M660 2v22h40v54l18-18h-36l18 18" stroke-dasharray="191.76080319856615,11.150885046865284" stroke-dashoffset="191.760803"/></g><g stroke="#ffffff" stroke-dasharray="0,202.91168824543144" stroke-dashoffset="202.911688"><path d="M660 2v22h-40v54l18-18h-36l18 18M660 2v22h40v54l18-18h-36l18 18"/></g></g><g fill="none" stroke-width="3" stroke-linecap="round" stroke-linejoin="round"><path d="M780 2v22h-40v54l18-18h-36l18 18m40-76v22h40v54l18-18h-36l18 18" stroke="#BDBDBD" stroke-miterlimit="3"/><g stroke="#ffffff" stroke-miterlimit="3"><path d="M780 2v22h-40v54l18-18h-36l18 18" stroke-dasharray="187.6862607356608,15.225427509770645" stroke-dashoffset="187.686261"/><path d="M780 2v22h40v54l18-18h-36l18 18" stroke-dasharray="185.64279129390846,17.268896951522972" stroke-dashoffset="185.642791"/></g><g stroke="#ffffff" stroke-dasharray="0,202.91168824543144" stroke-dashoffset="202.911688"><path d="M780 2v22h-40v54l18-18h-36l18 18M780 2v22h40v54l18-18h-36l18 18"/></g></g><g fill="none" stroke-width="3" stroke-linecap="round" stroke-linejoin="round"><path d="M900 2v22h-40v54l18-18h-36l18 18m40-76v22h40v54l18-18h-36l18 18" stroke="#BDBDBD" stroke-miterlimit="3"/><g stroke="#ffffff" stroke-miterlimit="3"><path d="M900 2v22h-40v54l18-18h-36l18 18" stroke-dasharray="180.17114594108875,22.740542304342675" stroke-dashoffset="180.171146"/><path d="M900 2v22h40v54l18-18h-36l18 18" stroke-dasharray="177.59756677627618,25.314121469155264" stroke-dashoffset="177.597567"/></g><g stroke="#ffffff" stroke-dasharray="0,202.91168824543144" stroke-dashoffset="202.911688"><path d="M900 2v22h-40v54l18-18h-36l18 18M900 2v22h40v54l18-18h-36l18 18"/></g></g><g fill="none" stroke-width="3" stroke-linecap="round" stroke-linejoin="round"><path d="M1020 2v22h-40v54l18-18h-36l18 18m40-76v22h40v54l18-18h-36l18 18" stroke="#BDBDBD" stroke-miterlimit="3"/><g stroke="#ffffff" stroke-miterlimit="3"><path d="M1020 2v22h-40v54l18-18h-36l18 18" stroke-dasharray="170.49169260762653,32.41999563780491" stroke-dashoffset="170.491693"/><path d="M1020 2v22h40v54l18-18h-36l18 18" stroke-dasharray="167.36799326458822,35.54369498084321" stroke-dashoffset="167.367993"/></g><g stroke="#ffffff" stroke-dasharray="0,202.91168824543144" stroke-dashoffset="202.911688"><path d="M1020 2v22h-40v54l18-18h-36l18 18M1020 2v22h40v54l18-18h-36l18 18"/></g></g><g fill="none" stroke-width="3" stroke-linecap="round" stroke-linejoin="round"><path d="M1140 2v22h-40v54l18-18h-36l18 18m40-76v22h40v54l18-18h-36l18 18" stroke="#BDBDBD" stroke-miterlimit="3"/><g stroke="#ffffff" stroke-miterlimit="3"><path d="M1140 2v22h-40v54l18-18h-36l18 18" stroke-dasharray="158.51372260381993,44.397965641611506" stroke-dashoffset="158.513723"/><path d="M1140 2v22h40v54l18-18h-36l18 18" stroke-dasharray="154.90534751538345,48.00634073004797" stroke-dashoffset="154.905348"/></g><g stroke="#ffffff" stroke-dasharray="0,202.91168824543144" stroke-dashoffset="202.911688"><path d="M1140 2v22h-40v54l18-18h-36l18 18M1140 2v22h40v54l18-18h-36l18 18"/></g></g><g fill="none" stroke-width="3" stroke-linecap="round" stroke-linejoin="round"><path d="M1260 2v22h-40v54l18-18h-36l18 18m40-76v22h40v54l18-18h-36l18 18" stroke="#BDBDBD" stroke-miterlimit="3"/><g stroke="#ffffff" stroke-miterlimit="3"><path d="M1260 2v22h-40v54l18-18h-36l18 18" stroke-dasharray="144.4865754780216,58.42511276740984" stroke-dashoffset="144.486575"/><path d="M1260 2v22h40v54l18-18h-36l18 18" stroke-dasharray="140.58933751817523,62.3223507272562" stroke-dashoffset="140.589338"/></g><g stroke="#ffffff" stroke-dasharray="0,202.91168824543144" stroke-dashoffset="202.911688"><path d="M1260 2v22h-40v54l18-18h-36l18 18M1260 2v22h40v54l18-18h-36l18 18"/></g></g><g fill="none" stroke-width="3" stroke-linecap="round" stroke-linejoin="round"><path d="M1380 2v22h-40v54l18-18h-36l18 18m40-76v22h40v54l18-18h-36l18 18" stroke="#BDBDBD" stroke-miterlimit="3"/><g stroke="#ffffff" stroke-miterlimit="3"><path d="M1380 2v22h-40v54l18-18h-36l18 18" stroke-dasharray="129.19241113586648,73.71927710956494" stroke-dashoffset="129.192411"/><path d="M1380 2v22h40v54l18-18h-36l18 18" stroke-dasharray="125.30089338018038,77.61079486525105" stroke-dashoffset="125.300893"/></g><g stroke="#ffffff" stroke-dasharray="0,202.91168824543144" stroke-dashoffset="202.911688"><path d="M1380 2v22h-40v54l18-18h-36l18 18M1380 2v22h40v54l18-18h-36l18 18"/></g></g><g fill="none" stroke-width="3" stroke-linecap="round" stroke-linejoin="round"><path d="M1500 2v22h-40v54l18-18h-36l18 18m40-76v22h40v54l18-18h-36l18 18" stroke="#BDBDBD" stroke-miterlimit="3"/><g stroke="#ffffff" stroke-miterlimit="3"><path d="M1500 2v22h-40v54l18-18h-36l18 18" stroke-dasharray="113.74416561104958,89.16752263438185" stroke-dashoffset="113.744166"/><path d="M1500 2v22h40v54l18-18h-36l18 18" stroke-dasharray="110.12996576602927,92.78172247940216" stroke-dashoffset="110.129966"/></g><g stroke="#ffffff" stroke-dasharray="0,202.91168824543144" stroke-dashoffset="202.911688"><path d="M1500 2v22h-40v54l18-18h-36l18 18M1500 2v22h40v54l18-18h-36l18 18"/></g></g><g fill="none" stroke-width="3" stroke-linecap="round" stroke-linejoin="round"><path d="M1620 2v22h-40v54l18-18h-36l18 18m40-76v22h40v54l18-18h-36l18 18" stroke="#BDBDBD" stroke-miterlimit="3"/><g stroke="#ffffff" stroke-miterlimit="3"><path d="M1620 2v22h-40v54l18-18h-36l18 18" stroke-dasharray="99.11170868772795,103.79997955770348" stroke-dashoffset="99.111709"/><path d="M1620 2v22h40v54l18-18h-36l18 18" stroke-dasharray="95.92722632662137,106.98446191881007" stroke-dashoffset="95.927226"/></g><g stroke="#ffffff" stroke-dasharray="0,202.91168824543144" stroke-dashoffset="202.911688"><path d="M1620 2v22h-40v54l18-18h-36l18 18M1620 2v22h40v54l18-18h-36l18 18"/></g></g><g fill="none" stroke-width="3" stroke-linecap="round" stroke-linejoin="round"><path d="M1740 2v22h-40v54l18-18h-36l18 18m40-76v22h40v54l18-18h-36l18 18" stroke="#BDBDBD" stroke-miterlimit="3"/><g stroke="#ffffff" stroke-miterlimit="3"><path d="M1740 2v22h-40v54l18-18h-36l18 18" stroke-dasharray="85.83360061968231,117.07808762574912" stroke-dashoffset="85.833601"/><path d="M1740 2v22h40v54l18-18h-36l18 18" stroke-dasharray="83.11477922967181,119.79690901575962" stroke-dashoffset="83.114779"/></g><g stroke="#ffffff" stroke-dasharray="0,202.91168824543144" stroke-dashoffset="202.911688"><path d="M1740 2v22h-40v54l18-18h-36l18 18M1740 2v22h40v54l18-18h-36l18 18"/></g></g><g fill="none" stroke-width="3" stroke-linecap="round" stroke-linejoin="round"><path d="M1860 2v22h-40v54l18-18h-36l18 18m40-76v22h40v54l18-18h-36l18 18" stroke="#BDBDBD" stroke-miterlimit="3"/><g stroke="#ffffff" stroke-miterlimit="3"><path d="M1860 2v22h-40v54l18-18h-36l18 18" stroke-dasharray="74.06417722197041,128.84751102346104" stroke-dashoffset="74.064177"/><path d="M1860 2v22h40v54l18-18h-36l18 18" stroke-dasharray="71.78079724267027,131.13089100276116" stroke-dashoffset="71.780797"/></g><g stroke="#ffffff" stroke-dasharray="0,202.91168824543144" stroke-dashoffset="202.911688"><path d="M1860 2v22h-40v54l18-18h-36l18 18M1860 2v22h40v54l18-18h-36l18 18"/></g></g><g fill="none" stroke-width="3" stroke-linecap="round" stroke-linejoin="round"><path d="M1980 2v22h-40v54l18-18h-36l18 18m40-76v22h40v54l18-18h-36l18 18" stroke="#BDBDBD" stroke-miterlimit="3"/><g stroke="#ffffff" stroke-miterlimit="3"><path d="M1980 2v22h-40v54l18-18h-36l18 18" stroke-dasharray="63.74303495444684,139.1686532909846" stroke-dashoffset="63.743035"/><path d="M1980 2v22h40v54l18-18h-36l18 18" stroke-dasharray="61.8404132059674,141.07127503946404" stroke-dashoffset="61.840413"/></g><g stroke="#ffffff" stroke-dasharray="0,202.91168824543144" stroke-dashoffset="202.911688"><path d="M1980 2v22h-40v54l18-18h-36l18 18M1980 2v22h40v54l18-18h-36l18 18"/></g></g><g fill="none" stroke-width="3" stroke-linecap="round" stroke-linejoin="round"><path d="M2100 2v22h-40v54l18-18h-36l18 18m40-76v22h40v54l18-18h-36l18 18" stroke="#BDBDBD" stroke-miterlimit="3"/><g stroke="#ffffff" stroke-miterlimit="3"><path d="M2100 2v22h-40v54l18-18h-36l18 18" stroke-dasharray="54.72537394465174,148.18631430077969" stroke-dashoffset="54.725374"/><path d="M2100 2v22h40v54l18-18h-36l18 18" stroke-dasharray="53.14594132634607,149.76574691908536" stroke-dashoffset="53.145941"/></g><g stroke="#ffffff" stroke-dasharray="0,202.91168824543144" stroke-dashoffset="202.911688"><path d="M2100 2v22h-40v54l18-18h-36l18 18M2100 2v22h40v54l18-18h-36l18 18"/></g></g><g fill="none" stroke-width="3" stroke-linecap="round" stroke-linejoin="round"><path d="M2220 2v22h-40v54l18-18h-36l18 18m40-76v22h40v54l18-18h-36l18 18" stroke="#BDBDBD" stroke-miterlimit="3"/><g stroke="#ffffff" stroke-miterlimit="3"><path d="M2220 2v22h-40v54l18-18h-36l18 18" stroke-dasharray="46.849545915036906,156.06214233039452" stroke-dashoffset="46.849546"/><path d="M2220 2v22h40v54l18-18h-36l18 18" stroke-dasharray="45.54123326900346,157.37045497642796" stroke-dashoffset="45.541233"/></g><g stroke="#ffffff" stroke-dasharray="0,202.91168824543144" stroke-dashoffset="202.911688"><path d="M2220 2v22h-40v54l18-18h-36l18 18M2220 2v22h40v54l18-18h-36l18 18"/></g></g><g fill="none" stroke-width="3" stroke-linecap="round" stroke-linejoin="round"><path d="M2340 2v22h-40v54l18-18h-36l18 18m40-76v22h40v54l18-18h-36l18 18" stroke="#BDBDBD" stroke-miterlimit="3"/><g stroke="#ffffff" stroke-miterlimit="3"><path d="M2340 2v22h-40v54l18-18h-36l18 18" stroke-dasharray="39.96478703991381,162.94690120551763" stroke-dashoffset="39.964787"/><path d="M2340 2v22h40v54l18-18h-36l18 18" stroke-dasharray="38.88318635502969,164.02850189040174" stroke-dashoffset="38.883186"/></g><g stroke="#ffffff" stroke-dasharray="0,202.91168824543144" stroke-dashoffset="202.911688"><path d="M2340 2v22h-40v54l18-18h-36l18 18M2340 2v22h40v54l18-18h-36l18 18"/></g></g><g fill="none" stroke-width="3" stroke-linecap="round" stroke-linejoin="round"><path d="M2460 2v22h-40v54l18-18h-36l18 18m40-76v22h40v54l18-18h-36l18 18" stroke="#BDBDBD" stroke-miterlimit="3"/><g stroke="#ffffff" stroke-miterlimit="3"><path d="M2460 2v22h-40v54l18-18h-36l18 18" stroke-dasharray="33.93979859524722,168.9718896501842" stroke-dashoffset="33.939799"/><path d="M2460 2v22h40v54l18-18h-36l18 18" stroke-dasharray="33.04789256684489,169.86379567858654" stroke-dashoffset="33.047893"/></g><g stroke="#ffffff" stroke-dasharray="0,202.91168824543144" stroke-dashoffset="202.911688"><path d="M2460 2v22h-40v54l18-18h-36l18 18M2460 2v22h40v54l18-18h-36l18 18"/></g></g><g fill="none" stroke-width="3" stroke-linecap="round" stroke-linejoin="round"><path d="M2580 2v22h-40v54l18-18h-36l18 18m40-76v22h40v54l18-18h-36l18 18" stroke="#BDBDBD" stroke-miterlimit="3"/><g stroke="#ffffff" stroke-miterlimit="3"><path d="M2580 2v22h-40v54l18-18h-36l18 18" stroke-dasharray="28.663412077270905,174.24827616816052" stroke-dashoffset="28.663412"/><path d="M2580 2v22h40v54l18-18h-36l18 18" stroke-dasharray="27.93054884131443,174.98113940411702" stroke-dashoffset="27.930549"/></g><g stroke="#ffffff" stroke-dasharray="0,202.91168824543144" stroke-dashoffset="202.911688"><path d="M2580 2v22h-40v54l18-18h-36l18 18M2580 2v22h40v54l18-18h-36l18 18"/></g></g><g fill="none" stroke-width="3" stroke-linecap="round" stroke-linejoin="round"><path d="M2700 2v22h-40v54l18-18h-36l18 18m40-76v22h40v54l18-18h-36l18 18" stroke="#BDBDBD" stroke-miterlimit="3"/><g stroke="#ffffff" stroke-miterlimit="3"><path d="M2700 2v22h-40v54l18-18h-36l18 18" stroke-dasharray="24.04246303690233,178.86922520852912" stroke-dashoffset="24.042463"/><path d="M2700 2v22h40v54l18-18h-36l18 18" stroke-dasharray="23.443231681067957,179.4684565643635" stroke-dashoffset="23.443232"/></g><g stroke="#ffffff" stroke-dasharray="0,202.91168824543144" stroke-dashoffset="202.911688"><path d="M2700 2v22h-40v54l18-18h-36l18 18M2700 2v22h40v54l18-18h-36l18 18"/></g></g><g fill="none" stroke-width="3" stroke-linecap="round" stroke-linejoin="round"><path d="M2820 2v22h-40v54l18-18h-36l18 18m40-76v22h40v54l18-18h-36l18 18" stroke="#BDBDBD" stroke-miterlimit="3"/><g stroke="#ffffff" stroke-miterlimit="3"><path d="M2820 2v22h-40v54l18-18h-36l18 18" stroke-dasharray="19.9989950978712,182.91269314756025" stroke-dashoffset="19.998995"/><path d="M2820 2v22h40v54l18-18h-36l18 18" stroke-dasharray="19.51222377242938,183.39946447300204" stroke-dashoffset="19.512224"/></g><g stroke="#ffffff" stroke-dasharray="0,202.91168824543144" stroke-dashoffset="202.911688"><path d="M2820 2v22h-40v54l18-18h-36l18 18M2820 2v22h40v54l18-18h-36l18 18"/></g></g><g fill="none" stroke-width="3" stroke-linecap="round" stroke-linejoin="round"><path d="M2940 2v22h-40v54l18-18h-36l18 18m40-76v22h40v54l18-18h-36l18 18" stroke="#BDBDBD" stroke-miterlimit="3"/><g stroke="#ffffff" stroke-miterlimit="3"><path d="M2940 2v22h-40v54l18-18h-36l18 18" stroke-dasharray="16.46759123331987,186.44409701211157" stroke-dashoffset="16.467591"/><path d="M2940 2v22h40v54l18-18h-36l18 18" stroke-dasharray="16.07551953427197,186.83616871115947" stroke-dashoffset="16.07552"/></g><g stroke="#ffffff" stroke-dasharray="0,202.91168824543144" stroke-dashoffset="202.911688"><path d="M2940 2v22h-40v54l18-18h-36l18 18M2940 2v22h40v54l18-18h-36l18 18"/></g></g><g fill="none" stroke-width="3" stroke-linecap="round" stroke-linejoin="round"><path d="M3060 2v22h-40v54l18-18h-36l18 18m40-76v22h40v54l18-18h-36l18 18" stroke="#BDBDBD" stroke-miterlimit="3"/><g stroke="#ffffff" stroke-miterlimit="3"><path d="M3060 2v22h-40v54l18-18h-36l18 18" stroke-dasharray="13.393079508516374,189.51860873691507" stroke-dashoffset="13.39308"/><path d="M3060 2v22h40v54l18-18h-36l18 18" stroke-dasharray="13.080696171000648,189.83099207443078" stroke-dashoffset="13.080696"/></g><g stroke="#ffffff" stroke-dasharray="0.3448286948880681,202.56685955054337" stroke-dashoffset="202.911688"><path d="M3060 2v22h-40v54l18-18h-36l18 18M3060 2v22h40v54l18-18h-36l18 18"/></g></g><g fill="none" stroke-width="3" stroke-linecap="round" stroke-linejoin="round"><path d="M3180 2v22h-40v54l18-18h-36l18 18m40-76v22h40v54l18-18h-36l18 18" stroke="#BDBDBD" stroke-miterlimit="3"/><g stroke="#ffffff" stroke-miterlimit="3"><path d="M3180 2v22h-40v54l18-18h-36l18 18" stroke-dasharray="10.728645773178071,192.18304247225336" stroke-dashoffset="10.728646"/><path d="M3180 2v22h40v54l18-18h-36l18 18" stroke-dasharray="10.483165286868681,192.42852295856275" stroke-dashoffset="10.483165"/></g><g stroke="#ffffff" stroke-dasharray="1.4630279972621112,201.44866024816932" stroke-dashoffset="202.911688"><path d="M3180 2v22h-40v54l18-18h-36l18 18M3180 2v22h40v54l18-18h-36l18 18"/></g></g><g fill="none" stroke-width="3" stroke-linecap="round" stroke-linejoin="round"><path d="M3300 2v22h-40v54l18-18h-36l18 18m40-76v22h40v54l18-18h-36l18 18" stroke="#BDBDBD" stroke-miterlimit="3"/><g stroke="#ffffff" stroke-miterlimit="3"><path d="M3300 2v22h-40v54l18-18h-36l18 18" stroke-dasharray="8.434310839947814,194.47737740548362" stroke-dashoffset="8.434311"/><path d="M3300 2v22h40v54l18-18h-36l18 18" stroke-dasharray="8.244761135446028,194.6669271099854" stroke-dashoffset="8.244761"/></g><g stroke="#ffffff" stroke-dasharray="3.504063018613604,199.40762522681783" stroke-dashoffset="202.911688"><path d="M3300 2v22h-40v54l18-18h-36l18 18M3300 2v22h40v54l18-18h-36l18 18"/></g></g><g fill="none" stroke-width="3" stroke-linecap="round" stroke-linejoin="round"><path d="M3420 2v22h-40v54l18-18h-36l18 18m40-76v22h40v54l18-18h-36l18 18" stroke="#BDBDBD" stroke-miterlimit="3"/><g stroke="#ffffff" stroke-miterlimit="3"><path d="M3420 2v22h-40v54l18-18h-36l18 18" stroke-dasharray="6.4757108077819145,196.4359774376495" stroke-dashoffset="6.475711"/><path d="M3420 2v22h40v54l18-18h-36l18 18" stroke-dasharray="6.332607834209234,196.5790804112222" stroke-dashoffset="6.332608"/></g><g stroke="#ffffff" stroke-dasharray="6.655650235164017,196.25603801026742" stroke-dashoffset="202.911688"><path d="M3420 2v22h-40v54l18-18h-36l18 18M3420 2v22h40v54l18-18h-36l18 18"/></g></g><g fill="none" stroke-width="3" stroke-linecap="round" stroke-linejoin="round"><path d="M3540 2v22h-40v54l18-18h-36l18 18m40-76v22h40v54l18-18h-36l18 18" stroke="#BDBDBD" stroke-miterlimit="3"/><g stroke="#ffffff" stroke-miterlimit="3"><path d="M3540 2v22h-40v54l18-18h-36l18 18" stroke-dasharray="4.823121268933619,198.08856697649782" stroke-dashoffset="4.823121"/><path d="M3540 2v22h40v54l18-18h-36l18 18" stroke-dasharray="4.7182109757726804,198.19347726965876" stroke-dashoffset="4.718211"/></g><g stroke="#ffffff" stroke-dasharray="11.150885046865273,191.76080319856615" stroke-dashoffset="202.911688"><path d="M3540 2v22h-40v54l18-18h-36l18 18M3540 2v22h40v54l18-18h-36l18 18"/></g></g><g fill="none" stroke-width="3" stroke-linecap="round" stroke-linejoin="round"><path d="M3660 2v22h-40v54l18-18h-36l18 18m40-76v22h40v54l18-18h-36l18 18" stroke="#BDBDBD" stroke-miterlimit="3"/><g stroke="#ffffff" stroke-miterlimit="3"><path d="M3660 2v22h-40v54l18-18h-36l18 18" stroke-dasharray="3.4506748023564935,199.46101344307493" stroke-dashoffset="3.450675"/><path d="M3660 2v22h40v54l18-18h-36l18 18" stroke-dasharray="3.3767273331555017,199.53496091227592" stroke-dashoffset="3.376727"/></g><g stroke="#ffffff" stroke-dasharray="17.26889695152297,185.64279129390846" stroke-dashoffset="202.911688"><path d="M3660 2v22h-40v54l18-18h-36l18 18M3660 2v22h40v54l18-18h-36l18 18"/></g></g><g fill="none" stroke-width="3" stroke-linecap="round" stroke-linejoin="round"><path d="M3780 2v22h-40v54l18-18h-36l18 18m40-76v22h40v54l18-18h-36l18 18" stroke="#BDBDBD" stroke-miterlimit="3"/><g stroke="#ffffff" stroke-miterlimit="3"><path d="M3780 2v22h-40v54l18-18h-36l18 18" stroke-dasharray="2.3357307849464353,200.575957460485" stroke-dashoffset="2.335731"/><path d="M3780 2v22h40v54l18-18h-36l18 18" stroke-dasharray="2.286375212023011,200.62531303340842" stroke-dashoffset="2.286375"/></g><g stroke="#ffffff" stroke-dasharray="25.314121469155307,177.59756677627612" stroke-dashoffset="202.911688"><path d="M3780 2v22h-40v54l18-18h-36l18 18M3780 2v22h40v54l18-18h-36l18 18"/></g></g><g fill="none" stroke-width="3" stroke-linecap="round" stroke-linejoin="round"><path d="M3900 2v22h-40v54l18-18h-36l18 18m40-76v22h40v54l18-18h-36l18 18" stroke="#BDBDBD" stroke-miterlimit="3"/><g stroke="#ffffff" stroke-miterlimit="3"><path d="M3900 2v22h-40v54l18-18h-36l18 18" stroke-dasharray="1.458365167466805,201.45332307796463" stroke-dashoffset="1.458365"/><path d="M3900 2v22h40v54l18-18h-36l18 18" stroke-dasharray="1.4279558495788944,201.48373239585254" stroke-dashoffset="1.427956"/></g><g stroke="#ffffff" stroke-dasharray="35.543694980843256,167.36799326458816" stroke-dashoffset="202.911688"><path d="M3900 2v22h-40v54l18-18h-36l18 18M3900 2v22h40v54l18-18h-36l18 18"/></g></g><g fill="none" stroke-width="3" stroke-linecap="round" stroke-linejoin="round"><path d="M4020 2v22h-40v54l18-18h-36l18 18m40-76v22h40v54l18-18h-36l18 18" stroke="#BDBDBD" stroke-miterlimit="3"/><g stroke="#ffffff" stroke-miterlimit="3"><path d="M4020 2v22h-40v54l18-18h-36l18 18" stroke-dasharray="0.8009549569027483,202.11073328852868" stroke-dashoffset=".800955"/><path d="M4020 2v22h40v54l18-18h-36l18 18" stroke-dasharray="0.7844627062208146,202.12722553921063" stroke-dashoffset=".784463"/></g><g stroke="#ffffff" stroke-dasharray="48.006340730047974,154.90534751538345" stroke-dashoffset="202.911688"><path d="M4020 2v22h-40v54l18-18h-36l18 18M4020 2v22h40v54l18-18h-36l18 18"/></g></g><g fill="none" stroke-width="3" stroke-linecap="round" stroke-linejoin="round"><path d="M4140 2v22h-40v54l18-18h-36l18 18m40-76v22h40v54l18-18h-36l18 18" stroke="#BDBDBD" stroke-miterlimit="3"/><g stroke="#ffffff" stroke-miterlimit="3"><path d="M4140 2v22h-40v54l18-18h-36l18 18" stroke-dasharray="0.34783776844500514,202.56385047698643" stroke-dashoffset=".347838"/><path d="M4140 2v22h40v54l18-18h-36l18 18" stroke-dasharray="0.3407606060788608,202.57092763935256" stroke-dashoffset=".340761"/></g><g stroke="#ffffff" stroke-dasharray="62.3223507272562,140.58933751817523" stroke-dashoffset="202.911688"><path d="M4140 2v22h-40v54l18-18h-36l18 18M4140 2v22h40v54l18-18h-36l18 18"/></g></g><g fill="none" stroke-width="3" stroke-linecap="round" stroke-linejoin="round"><path d="M4260 2v22h-40v54l18-18h-36l18 18m40-76v22h40v54l18-18h-36l18 18" stroke="#BDBDBD" stroke-miterlimit="3"/><g stroke="#ffffff" stroke-miterlimit="3"><path d="M4260 2v22h-40v54l18-18h-36l18 18" stroke-dasharray="0.08503118110147825,202.82665706432996" stroke-dashoffset=".085031"/><path d="M4260 2v22h40v54l18-18h-36l18 18" stroke-dasharray="0.0833206625629731,202.82836758286845" stroke-dashoffset=".083321"/></g><g stroke="#ffffff" stroke-dasharray="77.61079486525118,125.30089338018027" stroke-dashoffset="202.911688"><path d="M4260 2v22h-40v54l18-18h-36l18 18M4260 2v22h40v54l18-18h-36l18 18"/></g></g><g fill="none" stroke-width="3" stroke-linecap="round" stroke-linejoin="round"><path d="M4380 2v22h-40v54l18-18h-36l18 18m40-76v22h40v54l18-18h-36l18 18" stroke="#BDBDBD" stroke-miterlimit="3"/><g stroke="#ffffff" stroke-dasharray="0,202.91168824543144" stroke-dashoffset="202.911688" stroke-miterlimit="3"><path d="M4380 2v22h-40v54l18-18h-36l18 18M4380 2v22h40v54l18-18h-36l18 18"/></g><g stroke="#ffffff" stroke-dasharray="92.78172247940216,110.12996576602927" stroke-dashoffset="202.911688"><path d="M4380 2v22h-40v54l18-18h-36l18 18M4380 2v22h40v54l18-18h-36l18 18"/></g></g><g fill="none" stroke-width="3" stroke-linecap="round" stroke-linejoin="round"><path d="M4500 2v22h-40v54l18-18h-36l18 18m40-76v22h40v54l18-18h-36l18 18" stroke="#BDBDBD" stroke-miterlimit="3"/><g stroke="#ffffff" stroke-dasharray="0,202.91168824543144" stroke-dashoffset="202.911688" stroke-miterlimit="3"><path d="M4500 2v22h-40v54l18-18h-36l18 18M4500 2v22h40v54l18-18h-36l18 18"/></g><g stroke="#ffffff" stroke-dasharray="106.98446191881011,95.92722632662132" stroke-dashoffset="202.911688"><path d="M4500 2v22h-40v54l18-18h-36l18 18M4500 2v22h40v54l18-18h-36l18 18"/></g></g><g fill="none" stroke-width="3" stroke-linecap="round" stroke-linejoin="round"><path d="M4620 2v22h-40v54l18-18h-36l18 18m40-76v22h40v54l18-18h-36l18 18" stroke="#BDBDBD" stroke-miterlimit="3"/><g stroke="#ffffff" stroke-dasharray="0,202.91168824543144" stroke-dashoffset="202.911688" stroke-miterlimit="3"><path d="M4620 2v22h-40v54l18-18h-36l18 18M4620 2v22h40v54l18-18h-36l18 18"/></g><g stroke="#ffffff" stroke-dasharray="119.79690901575961,83.11477922967183" stroke-dashoffset="202.911688"><path d="M4620 2v22h-40v54l18-18h-36l18 18M4620 2v22h40v54l18-18h-36l18 18"/></g></g><g fill="none" stroke-width="3" stroke-linecap="round" stroke-linejoin="round"><path d="M4740 2v22h-40v54l18-18h-36l18 18m40-76v22h40v54l18-18h-36l18 18" stroke="#BDBDBD" stroke-miterlimit="3"/><g stroke="#ffffff" stroke-dasharray="0,202.91168824543144" stroke-dashoffset="202.911688" stroke-miterlimit="3"><path d="M4740 2v22h-40v54l18-18h-36l18 18M4740 2v22h40v54l18-18h-36l18 18"/></g><g stroke="#ffffff" stroke-dasharray="131.13089100276116,71.78079724267027" stroke-dashoffset="202.911688"><path d="M4740 2v22h-40v54l18-18h-36l18 18M4740 2v22h40v54l18-18h-36l18 18"/></g></g><g fill="none" stroke-width="3" stroke-linecap="round" stroke-linejoin="round"><path d="M4860 2v22h-40v54l18-18h-36l18 18m40-76v22h40v54l18-18h-36l18 18" stroke="#BDBDBD" stroke-miterlimit="3"/><g stroke="#ffffff" stroke-dasharray="0,202.91168824543144" stroke-dashoffset="202.911688" stroke-miterlimit="3"><path d="M4860 2v22h-40v54l18-18h-36l18 18M4860 2v22h40v54l18-18h-36l18 18"/></g><g stroke="#ffffff" stroke-dasharray="141.07127503946396,61.840413205967465" stroke-dashoffset="202.911688"><path d="M4860 2v22h-40v54l18-18h-36l18 18M4860 2v22h40v54l18-18h-36l18 18"/></g></g><g fill="none" stroke-width="3" stroke-linecap="round" stroke-linejoin="round"><path d="M4980 2v22h-40v54l18-18h-36l18 18m40-76v22h40v54l18-18h-36l18 18" stroke="#BDBDBD" stroke-miterlimit="3"/><g stroke="#ffffff" stroke-dasharray="0,202.91168824543144" stroke-dashoffset="202.911688" stroke-miterlimit="3"><path d="M4980 2v22h-40v54l18-18h-36l18 18M4980 2v22h40v54l18-18h-36l18 18"/></g><g stroke="#ffffff" stroke-dasharray="149.7657469190854,53.14594132634604" stroke-dashoffset="202.911688"><path d="M4980 2v22h-40v54l18-18h-36l18 18M4980 2v22h40v54l18-18h-36l18 18"/></g></g><g fill="none" stroke-width="3" stroke-linecap="round" stroke-linejoin="round"><path d="M5100 2v22h-40v54l18-18h-36l18 18m40-76v22h40v54l18-18h-36l18 18" stroke="#BDBDBD" stroke-miterlimit="3"/><g stroke="#ffffff" stroke-dasharray="0,202.91168824543144" stroke-dashoffset="202.911688" stroke-miterlimit="3"><path d="M5100 2v22h-40v54l18-18h-36l18 18M5100 2v22h40v54l18-18h-36l18 18"/></g><g stroke="#ffffff" stroke-dasharray="157.37045497642796,45.54123326900346" stroke-dashoffset="202.911688"><path d="M5100 2v22h-40v54l18-18h-36l18 18M5100 2v22h40v54l18-18h-36l18 18"/></g></g><g fill="none" stroke-width="3" stroke-linecap="round" stroke-linejoin="round"><path d="M5220 2v22h-40v54l18-18h-36l18 18m40-76v22h40v54l18-18h-36l18 18" stroke="#BDBDBD" stroke-miterlimit="3"/><g stroke="#ffffff" stroke-dasharray="0,202.91168824543144" stroke-dashoffset="202.911688" stroke-miterlimit="3"><path d="M5220 2v22h-40v54l18-18h-36l18 18M5220 2v22h40v54l18-18h-36l18 18"/></g><g stroke="#ffffff" stroke-dasharray="164.02850189040174,38.88318635502969" stroke-dashoffset="202.911688"><path d="M5220 2v22h-40v54l18-18h-36l18 18M5220 2v22h40v54l18-18h-36l18 18"/></g></g><g fill="none" stroke-width="3" stroke-linecap="round" stroke-linejoin="round"><path d="M5340 2v22h-40v54l18-18h-36l18 18m40-76v22h40v54l18-18h-36l18 18" stroke="#BDBDBD" stroke-miterlimit="3"/><g stroke="#ffffff" stroke-dasharray="0,202.91168824543144" stroke-dashoffset="202.911688" stroke-miterlimit="3"><path d="M5340 2v22h-40v54l18-18h-36l18 18M5340 2v22h40v54l18-18h-36l18 18"/></g><g stroke="#ffffff" stroke-dasharray="169.86379567858654,33.04789256684489" stroke-dashoffset="202.911688"><path d="M5340 2v22h-40v54l18-18h-36l18 18M5340 2v22h40v54l18-18h-36l18 18"/></g></g><g fill="none" stroke-width="3" stroke-linecap="round" stroke-linejoin="round"><path d="M5460 2v22h-40v54l18-18h-36l18 18m40-76v22h40v54l18-18h-36l18 18" stroke="#BDBDBD" stroke-miterlimit="3"/><g stroke="#ffffff" stroke-dasharray="0,202.91168824543144" stroke-dashoffset="202.911688" stroke-miterlimit="3"><path d="M5460 2v22h-40v54l18-18h-36l18 18M5460 2v22h40v54l18-18h-36l18 18"/></g><g stroke="#ffffff" stroke-dasharray="174.98113940411702,27.93054884131443" stroke-dashoffset="202.911688"><path d="M5460 2v22h-40v54l18-18h-36l18 18M5460 2v22h40v54l18-18h-36l18 18"/></g></g><g fill="none" stroke-width="3" stroke-linecap="round" stroke-linejoin="round"><path d="M5580 2v22h-40v54l18-18h-36l18 18m40-76v22h40v54l18-18h-36l18 18" stroke="#BDBDBD" stroke-miterlimit="3"/><g stroke="#ffffff" stroke-dasharray="0,202.91168824543144" stroke-dashoffset="202.911688" stroke-miterlimit="3"><path d="M5580 2v22h-40v54l18-18h-36l18 18M5580 2v22h40v54l18-18h-36l18 18"/></g><g stroke="#ffffff" stroke-dasharray="179.4684565643635,23.443231681067935" stroke-dashoffset="202.911688"><path d="M5580 2v22h-40v54l18-18h-36l18 18M5580 2v22h40v54l18-18h-36l18 18"/></g></g><g fill="none" stroke-width="3" stroke-linecap="round" stroke-linejoin="round"><path d="M5700 2v22h-40v54l18-18h-36l18 18m40-76v22h40v54l18-18h-36l18 18" stroke="#BDBDBD" stroke-miterlimit="3"/><g stroke="#ffffff" stroke-dasharray="0,202.91168824543144" stroke-dashoffset="202.911688" stroke-miterlimit="3"><path d="M5700 2v22h-40v54l18-18h-36l18 18M5700 2v22h40v54l18-18h-36l18 18"/></g><g stroke="#ffffff" stroke-dasharray="183.39946447300204,19.51222377242938" stroke-dashoffset="202.911688"><path d="M5700 2v22h-40v54l18-18h-36l18 18M5700 2v22h40v54l18-18h-36l18 18"/></g></g><g fill="none" stroke-width="3" stroke-linecap="round" stroke-linejoin="round"><path d="M5820 2v22h-40v54l18-18h-36l18 18m40-76v22h40v54l18-18h-36l18 18" stroke="#BDBDBD" stroke-miterlimit="3"/><g stroke="#ffffff" stroke-dasharray="0,202.91168824543144" stroke-dashoffset="202.911688" stroke-miterlimit="3"><path d="M5820 2v22h-40v54l18-18h-36l18 18M5820 2v22h40v54l18-18h-36l18 18"/></g><g stroke="#ffffff" stroke-dasharray="186.83616871115947,16.07551953427197" stroke-dashoffset="202.911688"><path d="M5820 2v22h-40v54l18-18h-36l18 18M5820 2v22h40v54l18-18h-36l18 18"/></g></g><g fill="none" stroke-width="3" stroke-linecap="round" stroke-linejoin="round"><path d="M5940 2v22h-40v54l18-18h-36l18 18m40-76v22h40v54l18-18h-36l18 18" stroke="#BDBDBD" stroke-miterlimit="3"/><g stroke="#ffffff" stroke-dasharray="0,202.91168824543144" stroke-dashoffset="202.911688" stroke-miterlimit="3"><path d="M5940 2v22h-40v54l18-18h-36l18 18M5940 2v22h40v54l18-18h-36l18 18"/></g><g stroke="#ffffff" stroke-dasharray="189.8309920744308,13.080696171000627" stroke-dashoffset="202.911688"><path d="M5940 2v22h-40v54l18-18h-36l18 18M5940 2v22h40v54l18-18h-36l18 18"/></g></g><g fill="none" stroke-width="3" stroke-linecap="round" stroke-linejoin="round"><path d="M6060 2v22h-40v54l18-18h-36l18 18m40-76v22h40v54l18-18h-36l18 18" stroke="#BDBDBD" stroke-miterlimit="3"/><g stroke="#ffffff" stroke-dasharray="0,202.91168824543144" stroke-dashoffset="202.911688" stroke-miterlimit="3"><path d="M6060 2v22h-40v54l18-18h-36l18 18M6060 2v22h40v54l18-18h-36l18 18"/></g><g stroke="#ffffff" stroke-dasharray="192.42852295856275,10.483165286868681" stroke-dashoffset="202.911688"><path d="M6060 2v22h-40v54l18-18h-36l18 18M6060 2v22h40v54l18-18h-36l18 18"/></g></g><g fill="none" stroke-width="3" stroke-linecap="round" stroke-linejoin="round"><path d="M6180 2v22h-40v54l18-18h-36l18 18m40-76v22h40v54l18-18h-36l18 18" stroke="#BDBDBD" stroke-miterlimit="3"/><g stroke="#ffffff" stroke-dasharray="0,202.91168824543144" stroke-dashoffset="202.911688" stroke-miterlimit="3"><path d="M6180 2v22h-40v54l18-18h-36l18 18M6180 2v22h40v54l18-18h-36l18 18"/></g><g stroke="#ffffff" stroke-dasharray="194.6669271099854,8.244761135446028" stroke-dashoffset="202.911688"><path d="M6180 2v22h-40v54l18-18h-36l18 18M6180 2v22h40v54l18-18h-36l18 18"/></g></g><g fill="none" stroke-width="3" stroke-linecap="round" stroke-linejoin="round"><path d="M6300 2v22h-40v54l18-18h-36l18 18m40-76v22h40v54l18-18h-36l18 18" stroke="#BDBDBD" stroke-miterlimit="3"/><g stroke="#ffffff" stroke-dasharray="0,202.91168824543144" stroke-dashoffset="202.911688" stroke-miterlimit="3"><path d="M6300 2v22h-40v54l18-18h-36l18 18M6300 2v22h40v54l18-18h-36l18 18"/></g><g stroke="#ffffff" stroke-dasharray="196.57908041122224,6.332607834209211" stroke-dashoffset="202.911688"><path d="M6300 2v22h-40v54l18-18h-36l18 18M6300 2v22h40v54l18-18h-36l18 18"/></g></g><g fill="none" stroke-width="3" stroke-linecap="round" stroke-linejoin="round"><path d="M6420 2v22h-40v54l18-18h-36l18 18m40-76v22h40v54l18-18h-36l18 18" stroke="#BDBDBD" stroke-miterlimit="3"/><g stroke="#ffffff" stroke-dasharray="0,202.91168824543144" stroke-dashoffset="202.911688" stroke-miterlimit="3"><path d="M6420 2v22h-40v54l18-18h-36l18 18M6420 2v22h40v54l18-18h-36l18 18"/></g><g stroke="#ffffff" stroke-dasharray="198.19347726965876,4.7182109757726804" stroke-dashoffset="202.911688"><path d="M6420 2v22h-40v54l18-18h-36l18 18M6420 2v22h40v54l18-18h-36l18 18"/></g></g><g fill="none" stroke-width="3" stroke-linecap="round" stroke-linejoin="round"><path d="M6540 2v22h-40v54l18-18h-36l18 18m40-76v22h40v54l18-18h-36l18 18" stroke="#BDBDBD" stroke-miterlimit="3"/><g stroke="#ffffff" stroke-dasharray="0,202.91168824543144" stroke-dashoffset="202.911688" stroke-miterlimit="3"><path d="M6540 2v22h-40v54l18-18h-36l18 18M6540 2v22h40v54l18-18h-36l18 18"/></g><g stroke="#ffffff" stroke-dasharray="199.53496091227592,3.3767273331555017" stroke-dashoffset="202.911688"><path d="M6540 2v22h-40v54l18-18h-36l18 18M6540 2v22h40v54l18-18h-36l18 18"/></g></g><g fill="none" stroke-width="3" stroke-linecap="round" stroke-linejoin="round"><path d="M6660 2v22h-40v54l18-18h-36l18 18m40-76v22h40v54l18-18h-36l18 18" stroke="#BDBDBD" stroke-miterlimit="3"/><g stroke="#ffffff" stroke-dasharray="0,202.91168824543144" stroke-dashoffset="202.911688" stroke-miterlimit="3"><path d="M6660 2v22h-40v54l18-18h-36l18 18M6660 2v22h40v54l18-18h-36l18 18"/></g><g stroke="#ffffff" stroke-dasharray="200.62531303340842,2.286375212023011" stroke-dashoffset="202.911688"><path d="M6660 2v22h-40v54l18-18h-36l18 18M6660 2v22h40v54l18-18h-36l18 18"/></g></g><g fill="none" stroke-width="3" stroke-linecap="round" stroke-linejoin="round"><path d="M6780 2v22h-40v54l18-18h-36l18 18m40-76v22h40v54l18-18h-36l18 18" stroke="#BDBDBD" stroke-miterlimit="3"/><g stroke="#ffffff" stroke-dasharray="0,202.91168824543144" stroke-dashoffset="202.911688" stroke-miterlimit="3"><path d="M6780 2v22h-40v54l18-18h-36l18 18M6780 2v22h40v54l18-18h-36l18 18"/></g><g stroke="#ffffff" stroke-dasharray="201.48373239585254,1.4279558495788944" stroke-dashoffset="202.911688"><path d="M6780 2v22h-40v54l18-18h-36l18 18M6780 2v22h40v54l18-18h-36l18 18"/></g></g><g fill="none" stroke-width="3" stroke-linecap="round" stroke-linejoin="round"><path d="M6900 2v22h-40v54l18-18h-36l18 18m40-76v22h40v54l18-18h-36l18 18" stroke="#BDBDBD" stroke-miterlimit="3"/><g stroke="#ffffff" stroke-dasharray="0,202.91168824543144" stroke-dashoffset="202.911688" stroke-miterlimit="3"><path d="M6900 2v22h-40v54l18-18h-36l18 18M6900 2v22h40v54l18-18h-36l18 18"/></g><g stroke="#ffffff" stroke-dasharray="202.12722553921063,0.7844627062208146" stroke-dashoffset="202.911688"><path d="M6900 2v22h-40v54l18-18h-36l18 18M6900 2v22h40v54l18-18h-36l18 18"/></g></g><g fill="none" stroke-width="3" stroke-linecap="round" stroke-linejoin="round"><path d="M7020 2v22h-40v54l18-18h-36l18 18m40-76v22h40v54l18-18h-36l18 18" stroke="#BDBDBD" stroke-miterlimit="3"/><g stroke="#ffffff" stroke-dasharray="0,202.91168824543144" stroke-dashoffset="202.911688" stroke-miterlimit="3"><path d="M7020 2v22h-40v54l18-18h-36l18 18M7020 2v22h40v54l18-18h-36l18 18"/></g><g stroke="#ffffff" stroke-dasharray="202.57092763935256,0.3407606060788608" stroke-dashoffset="202.911688"><path d="M7020 2v22h-40v54l18-18h-36l18 18M7020 2v22h40v54l18-18h-36l18 18"/></g></g><g fill="none" stroke-width="3" stroke-linecap="round" stroke-linejoin="round"><path d="M7140 2v22h-40v54l18-18h-36l18 18m40-76v22h40v54l18-18h-36l18 18" stroke="#BDBDBD" stroke-miterlimit="3"/><g stroke="#ffffff" stroke-dasharray="0,202.91168824543144" stroke-dashoffset="202.911688" stroke-miterlimit="3"><path d="M7140 2v22h-40v54l18-18h-36l18 18M7140 2v22h40v54l18-18h-36l18 18"/></g><g stroke="#ffffff" stroke-dasharray="202.82836758286845,0.08332066256299563" stroke-dashoffset="202.911688"><path d="M7140 2v22h-40v54l18-18h-36l18 18M7140 2v22h40v54l18-18h-36l18 18"/></g></g><g fill="none" stroke-width="3" stroke-linecap="round" stroke-linejoin="round"><path d="M7260 2v22h-40v54l18-18h-36l18 18m40-76v22h40v54l18-18h-36l18 18" stroke="#BDBDBD" stroke-miterlimit="3"/><g stroke="#ffffff" stroke-dasharray="0,202.91168824543144" stroke-dashoffset="202.911688" stroke-miterlimit="3"><path d="M7260 2v22h-40v54l18-18h-36l18 18M7260 2v22h40v54l18-18h-36l18 18"/></g><g stroke="#ffffff"><path d="M7260 2v22h-40v54l18-18h-36l18 18M7260 2v22h40v54l18-18h-36l18 18"/></g></g></svg>