<svg xmlns="http://www.w3.org/2000/svg" viewBox="0 0 760 40" width="760" height="40"><g fill="none" stroke="#d50000" stroke-width="4" stroke-dasharray="0,31.112698372208094" stroke-dashoffset="31.112698" stroke-linecap="round" stroke-linejoin="round"><path d="M9 9l22 22M31 9L9 31"/></g><g fill="none" stroke="#d50000" stroke-width="4" stroke-dashoffset="31.112698" stroke-linecap="round" stroke-linejoin="round"><path d="M49 9l22 22" stroke-dasharray="0.5372822862893344,30.575416085918757"/><path d="M71 9L49 31" stroke-dasharray="0,31.112698372208094"/></g><g fill="none" stroke="#d50000" stroke-width="4" stroke-dashoffset="31.112698" stroke-linecap="round" stroke-linejoin="round"><path d="M89 9l22 22" stroke-dasharray="2.647861179015027,28.46483719319307"/><path d="M111 9L89 31" stroke-dasharray="0,31.112698372208094"/></g><g fill="none" stroke="#d50000" stroke-width="4" stroke-dashoffset="31.112698" stroke-linecap="round" stroke-linejoin="round"><path d="M129 9l22 22" stroke-dasharray="7.360871184910953,23.751827187297142"/><path d="M151 9l-22 22" stroke-dasharray="0,31.112698372208094"/></g><g fill="none" stroke="#d50000" stroke-width="4" stroke-dashoffset="31.112698" stroke-linecap="round" stroke-linejoin="round"><path d="M169 9l22 22" stroke-dasharray="14.226335461089693,16.8863629111184"/><path d="M191 9l-22 22" stroke-dasharray="0,31.112698372208094"/></g><g fill="none" stroke="#d50000" stroke-width="4" stroke-dashoffset="31.112698" stroke-linecap="round" stroke-linejoin="round"><path d="M209 9l22 22" stroke-dasharray="20.106460570733848,11.006237801474247"/><path d="M231 9l-22 22" stroke-dasharray="0,31.112698372208094"/></g><g fill="none" stroke="#d50000" stroke-width="4" stroke-dashoffset="31.112698" stroke-linecap="round" stroke-linejoin="round"><path d="M249 9l22 22" stroke-dasharray="24.129805141912502,6.982893230295593"/><path d="M271 9l-22 22" stroke-dasharray="0,31.112698372208094"/></g><g fill="none" stroke="#d50000" stroke-width="4" stroke-dashoffset="31.112698" stroke-linecap="round" stroke-linejoin="round"><path d="M289 9l22 22" stroke-dasharray="26.83007301442707,4.282625357781022"/><path d="M311 9l-22 22" stroke-dasharray="0.5372822862893348,30.575416085918757"/></g><g fill="none" stroke="#d50000" stroke-width="4" stroke-dashoffset="31.112698" stroke-linecap="round" stroke-linejoin="round"><path d="M329 9l22 22" stroke-dasharray="28.647819218271017,2.4648791539370767"/><path d="M351 9l-22 22" stroke-dasharray="2.647861179015025,28.46483719319307"/></g><g fill="none" stroke="#d50000" stroke-width="4" stroke-dashoffset="31.112698" stroke-linecap="round" stroke-linejoin="round"><path d="M369 9l22 22" stroke-dasharray="29.848519021200147,1.264179351007946"/><path d="M391 9l-22 22" stroke-dasharray="7.360871184910953,23.751827187297142"/></g><g fill="none" stroke="#d50000" stroke-width="4" stroke-dashoffset="31.112698" stroke-linecap="round" stroke-linejoin="round"><path d="M409 9l22 22" stroke-dasharray="30.59494062296211,0.5177577492459825"/><path d="M431 9l-22 22" stroke-dasharray="14.2263354610897,16.886362911118393"/></g><g fill="none" stroke="#d50000" stroke-width="4" stroke-dashoffset="31.112698" stroke-linecap="round" stroke-linejoin="round"><path d="M449 9l22 22" stroke-dasharray="30.99241574199621,0.12028263021188389"/><path d="M471 9l-22 22" stroke-dasharray="20.106460570733848,11.006237801474247"/></g><g fill="none" stroke="#d50000" stroke-width="4" stroke-linecap="round" stroke-linejoin="round"><path d="M489 9l22 22"/><path d="M511 9l-22 22" stroke-dasharray="24.129805141912502,6.982893230295593" stroke-dashoffset="31.112698"/></g><g fill="none" stroke="#d50000" stroke-width="4" stroke-linecap="round" stroke-linejoin="round"><path d="M529 9l22 22"/><path d="M551 9l-22 22" stroke-dasharray="26.830073014427064,4.282625357781029" stroke-dashoffset="31.112698"/></g><g fill="none" stroke="#d50000" stroke-width="4" stroke-linecap="round" stroke-linejoin="round"><path d="M569 9l22 22"/><path d="M591 9l-22 22" stroke-dasharray="28.64781921827102,2.464879153937073" stroke-dashoffset="31.112698"/></g><g fill="none" stroke="#d50000" stroke-width="4" stroke-linecap="round" stroke-linejoin="round"><path d="M609 9l22 22"/><path d="M631 9l-22 22" stroke-dasharray="29.848519021200147,1.264179351007946" stroke-dashoffset="31.112698"/></g><g fill="none" stroke="#d50000" stroke-width="4" stroke-linecap="round" stroke-linejoin="round"><path d="M649 9l22 22"/><path d="M671 9l-22 22" stroke-dasharray="30.594940622962106,0.5177577492459859" stroke-dashoffset="31.112698"/></g><g fill="none" stroke="#d50000" stroke-width="4" stroke-linecap="round" stroke-linejoin="round"><path d="M689 9l22 22"/><path d="M711 9l-22 22" stroke-dasharray="30.992415741996208,0.12028263021188734" stroke-dashoffset="31.112698"/></g><g fill="none" stroke="#d50000" stroke-width="4" stroke-linecap="round" stroke-linejoin="round"><path d="M729 9l22 22M751 9l-22 22"/></g></svg>